<?xml version="1.0" encoding="UTF-8" standalone="no"?>
<!DOCTYPE svg PUBLIC "-//W3C//DTD SVG 1.1//EN" "http://www.w3.org/Graphics/SVG/1.1/DTD/svg11.dtd">
<svg version="1.1" xmlns="http://www.w3.org/2000/svg" xmlns:xlink="http://www.w3.org/1999/xlink" preserveAspectRatio="xMidYMid meet" viewBox="0 0 640 640" width="673" height="673"><defs><path d="M116.54 511.99C116.54 511.99 384.31 513.07 391.2 499.1C396.03 489.32 393.37 454.49 391.34 434.51C390.53 426.45 384.08 420.49 376.65 420.94C323 424.17 122.56 436.15 123.44 434.65C125.16 431.7 123.93 432.5 123.93 432.5C123.93 432.5 116.05 459.9 119.99 462.04C119.99 462.04 96.86 511.99 116.54 511.99Z" id="avfCvYNVu"></path><path d="M377.15 420.94C323.49 424.17 123.06 436.15 123.93 434.65C125.65 431.7 124.42 432.5 124.42 432.5C124.42 432.5 122.66 438.62 121.22 445.3C121.43 445.27 121.58 445.48 120.91 446.76C120.83 447.19 120.76 447.54 120.74 447.62C128.77 448.49 321.28 436.99 373.7 433.83C381.12 433.38 387.57 439.34 388.39 447.4C389.9 462.26 391.75 485.32 390.62 500.19C391.06 499.93 391.43 499.56 391.7 499.1C396.52 489.32 393.86 454.49 391.84 434.51C391.02 426.45 384.57 420.49 377.15 420.94Z" id="a16kOcCnjE"></path><path d="M142.05 383.41C142.2 382.45 143.38 381.71 144.23 380.9C145.87 379.35 146.32 377.17 144.55 375.67C142.79 374.17 138.53 373.97 136.98 375.56C136.18 376.37 136.22 377.39 135.81 378.31C134.52 381.19 129.3 382.45 124.86 383.56C120.43 384.68 115.47 386.76 115.88 389.73C116.34 392.97 123.18 395.85 120.43 398.61C119.43 399.61 117.33 400.17 116.88 401.32C116.57 402.13 117.2 402.95 117.81 403.68C118.25 404.21 121.73 408.4 122.17 408.92C123.9 411.01 125.69 413.27 125.11 415.59C123.96 420.19 114.6 421.95 107.19 421.43C104.48 421.24 101.28 420.99 99.42 422.23C97.98 423.19 97.98 424.68 98.46 425.96C99.69 429.26 103.63 432.11 108.66 433.35C103.02 434.57 100.8 439.69 104.7 442.51C102.47 443.35 100.06 443.43 97.79 442.73C95.86 444.67 96.99 447.32 99.44 449.02C101.88 450.71 105.34 451.66 108.7 452.57C108.38 452.89 105.87 455.45 105.56 455.77C107.83 457.7 112.73 457.02 116.04 455.8C119.35 454.58 122.94 452.93 126.64 453.57C130.12 454.17 132.75 456.7 136.28 456.27C139.03 455.93 140.33 454.01 141.19 452.35C141.55 451.65 144.45 446 144.82 445.3C149.99 446.18 155.42 442.31 153.35 439.23C159.13 439.91 164.83 435.81 162.93 432.33C166.01 434.93 168.18 437.94 169.24 441.1C169.71 442.51 170 444 171.29 445.2C173 446.59 175.21 447.02 177.26 446.38C176.21 448.61 175.35 451.21 177.52 453.11C179.69 455 185.94 454.46 185.67 452.14C188.97 453.69 192.68 455.15 196.81 455.26C200.94 455.38 205.46 453.66 205.84 451.1C211.66 453.19 217.75 454.26 223.88 454.26C224.4 452.55 228.05 451.99 230.77 452.41C233.49 452.83 236.02 453.84 238.82 453.84C241.63 453.84 244.64 452 243.21 450.5C249.11 451.85 255.18 452.18 261.18 451.49C266.84 450.83 272.2 449.27 277.94 448.94C283.75 448.55 289.57 449.55 295 451.88C296.88 452.74 299.21 453.82 301.28 453.14C302.45 452.76 303.02 451.94 303.81 451.28C307.24 448.44 314.24 448.99 319.64 450.1C325.04 451.22 331.32 452.56 336.06 450.59C337.84 449.84 339.16 448.7 341.06 448.07C347.86 445.84 356.01 451.56 363.23 449.92C365.58 449.38 367.49 448.1 369.98 447.94C374.4 447.66 377.32 450.92 381.62 451.63C386.08 452.36 390.91 449.4 389.83 446.6C394.11 446.71 398.38 446.06 402.48 444.68C402.28 444.29 400.66 441.11 400.46 440.71C405.5 440.62 409.21 436.67 406.87 433.88C411.93 432.83 415.93 430 416.97 426.74C418.01 423.48 416.05 419.91 412.02 417.74C409.64 416.45 406.52 415.55 405.16 413.78C404.18 412.5 404.32 411.02 403.94 409.62C403.11 406.57 399.5 403.88 394.83 402.83C392.81 402.38 390.59 402.2 388.76 401.5C386.92 400.79 385.6 399.27 386.66 398.1C387.22 397.48 388.3 397.12 388.99 396.55C391.82 394.27 386.97 391.39 382.83 390.11C383.49 390.08 386.79 389.97 392.72 389.75C393.99 383.45 394.7 379.95 394.84 379.25C390.93 382.72 380.78 381.99 378.24 378.05C381.41 379.19 385.68 377.73 387.23 375.66C388.78 373.59 388.4 371.19 387.99 368.92C387.91 367.77 387.28 366.75 386.34 366.24C385.37 365.73 383.83 365.52 383.51 364.76C383.19 363.99 384.44 363.3 384.62 362.51C384.98 360.98 381.77 360.31 379.6 359.57C374.49 357.84 372.01 352.95 366.2 353.11C360.42 353.27 358.81 358.08 358.81 361.68C358.8 365.29 356.85 370.11 351.07 370.04C348.76 370.01 346.75 369.11 344.91 368.24C343.26 367.46 330.02 361.23 328.36 360.46C326.18 359.35 323.9 358.46 321.57 357.8C318.23 356.95 314.54 356.85 310.94 356.76C308.63 356.7 290.11 356.24 287.8 356.18C286.62 356.08 285.43 356.19 284.28 356.51C283.07 356.96 282.48 357.83 281.75 358.58C278.52 361.88 270.94 363.18 265.48 361.36C264.03 360.87 262.73 360.21 261.19 359.85C256.35 358.7 251.27 360.82 246.24 361.58C238 362.84 227.76 360.68 221.81 364.46C219.83 365.72 218.78 367.44 216.95 368.78C215.11 370.12 211.8 371.03 209.48 370.02C209.77 372.48 210.04 375.05 208.51 377.33C206.98 379.61 203.06 381.47 199.21 380.9C197.17 380.31 197.33 378.43 198.29 377.16C199.26 375.9 200.74 374.6 200.26 373.23C199.78 371.87 197.59 371.07 195.96 370.13C194.32 369.18 193.23 367.38 194.97 366.5C193.8 364.86 189.59 365.06 187.74 366.44C185.89 367.81 185.7 369.75 185.5 371.55C185.3 373.34 184.86 375.3 182.71 376.5C179.06 378.55 172.04 377.49 169.62 380.15C168.85 381 168.8 382.02 168.36 382.95C166.39 387.12 157.9 388.2 150.96 388.54C150.82 389.4 150.78 390.29 150.87 391.16C153.24 390.04 149.28 387.76 147.56 387.19C145 386.33 141.75 385.22 142.05 383.41Z" id="gZTrKN95"></path><path d="M387.23 389.17C387 389.47 386.74 389.74 386.45 389.98C389.59 389.87 392.09 389.78 392.72 389.75C393.78 384.5 394.63 380.3 394.84 379.25C393.22 380.68 390.53 381.4 387.75 381.47C387.85 381.78 387.93 382.1 387.99 382.43C388.4 384.7 388.78 387.1 387.23 389.17Z" id="a96mCPzXU"></path><path d="M385.02 390.91C382.9 392.01 380.49 392.24 378.24 391.56C379.99 394.28 385.36 395.47 389.81 394.8C389.57 393.38 387.42 391.94 385.02 390.91Z" id="c4zaHMM7Tj"></path><path d="M392.72 403.26C387.78 403.44 383.82 403.58 382.83 403.62C386.97 404.9 391.82 407.78 388.99 410.06C388.3 410.63 387.22 410.99 386.66 411.61C385.6 412.78 386.92 414.3 388.76 415.01C390.59 415.71 392.81 415.89 394.83 416.34C399.5 417.39 403.11 420.09 403.94 423.14C404.32 424.53 404.18 426.01 405.16 427.29C406.52 429.06 409.64 429.96 412.02 431.25C412.25 431.37 412.47 431.5 412.69 431.63C414.83 430.31 416.38 428.59 416.97 426.74C418.01 423.48 416.05 419.91 412.02 417.74C409.64 416.45 406.52 415.55 405.16 413.78C404.18 412.5 404.32 411.02 403.94 409.62C403.11 406.57 399.5 403.88 394.83 402.83C394.2 402.69 393.54 402.57 392.88 402.46C392.8 402.86 392.74 403.18 392.72 403.26Z" id="a2njHYI52q"></path><path d="M124.86 397.08C129.3 395.96 134.52 394.7 135.81 391.83C136.22 390.9 136.18 389.88 136.98 389.07C138.53 387.48 142.79 387.68 144.55 389.18C146.32 390.68 145.87 392.86 144.23 394.41C143.38 395.22 142.2 395.97 142.05 396.92C141.75 398.73 145 399.84 147.56 400.7C148.77 401.12 149.9 401.77 150.9 402.62C150.92 402.43 150.95 402.23 150.96 402.05C157.9 401.71 166.39 400.63 168.36 396.46C168.8 395.53 168.85 394.51 169.62 393.66C172.04 391 179.06 392.06 182.71 390.01C184.86 388.81 185.3 386.85 185.5 385.06C185.7 383.26 185.89 381.33 187.74 379.95C189.59 378.57 193.8 378.37 194.97 380.01C193.23 380.89 194.32 382.69 195.96 383.64C197.59 384.58 199.78 385.38 200.26 386.74C200.74 388.11 199.26 389.41 198.29 390.67C197.33 391.94 197.17 393.82 199.21 394.41C203.06 394.98 206.98 393.12 208.51 390.84C210.04 388.56 209.77 385.99 209.48 383.53C211.8 384.54 215.11 383.63 216.95 382.29C218.78 380.95 219.83 379.23 221.81 377.97C227.76 374.19 238 376.35 246.24 375.09C251.27 374.33 256.35 372.21 261.19 373.36C262.73 373.72 264.03 374.38 265.48 374.87C270.94 376.69 278.52 375.39 281.75 372.09C282.48 371.34 283.07 370.47 284.28 370.02C285.43 369.7 286.62 369.59 287.8 369.69C299.37 369.98 308.63 370.21 310.94 370.27C314.54 370.36 318.23 370.46 321.57 371.31C323.9 371.97 326.18 372.86 328.36 373.97C336.64 377.86 343.26 380.97 344.91 381.75C346.75 382.62 348.76 383.52 351.07 383.55C356.85 383.62 358.8 378.8 358.81 375.19C358.81 371.59 360.42 366.78 366.2 366.62C372.01 366.46 374.49 371.35 379.6 373.09C381.77 373.82 384.98 374.49 384.62 376.02C384.46 376.72 383.45 377.35 383.46 378.02C384.9 377.65 386.21 376.83 387.23 375.66C388.78 373.59 388.4 371.19 387.99 368.92C387.91 367.77 387.28 366.75 386.34 366.24C385.37 365.73 383.83 365.52 383.51 364.76C383.19 363.99 384.44 363.3 384.62 362.51C384.98 360.98 381.77 360.31 379.6 359.58C374.49 357.84 372.01 352.95 366.2 353.11C360.42 353.27 358.81 358.08 358.81 361.68C358.8 365.29 356.85 370.11 351.07 370.04C348.76 370.01 346.75 369.11 344.91 368.24C336.64 364.35 330.02 361.23 328.36 360.46C326.18 359.35 323.9 358.46 321.57 357.8C318.23 356.95 314.54 356.85 310.94 356.76C299.37 356.47 290.11 356.24 287.8 356.18C286.62 356.08 285.43 356.19 284.28 356.51C283.07 356.96 282.48 357.83 281.75 358.58C278.52 361.88 270.94 363.18 265.48 361.36C264.03 360.87 262.73 360.21 261.19 359.85C256.35 358.7 251.27 360.82 246.24 361.58C238 362.84 227.76 360.68 221.81 364.46C219.83 365.72 218.78 367.44 216.95 368.78C215.11 370.12 211.8 371.03 209.48 370.02C209.77 372.48 210.04 375.05 208.51 377.33C206.98 379.61 203.06 381.47 199.21 380.9C197.17 380.31 197.33 378.43 198.29 377.16C199.26 375.9 200.74 374.6 200.26 373.23C199.78 371.87 197.59 371.07 195.96 370.13C194.32 369.18 193.23 367.38 194.97 366.5C193.8 364.86 189.59 365.06 187.74 366.44C185.89 367.82 185.7 369.75 185.5 371.55C185.3 373.34 184.86 375.3 182.71 376.5C179.06 378.55 172.04 377.49 169.62 380.15C168.85 381 168.8 382.02 168.36 382.95C166.39 387.12 157.9 388.2 150.96 388.54C150.95 388.72 150.92 388.92 150.9 389.11C149.9 388.26 148.77 387.61 147.56 387.19C145 386.33 141.75 385.22 142.05 383.41C142.2 382.45 143.38 381.71 144.23 380.9C145.87 379.35 146.32 377.17 144.55 375.67C142.79 374.17 138.53 373.97 136.98 375.56C136.18 376.37 136.22 377.39 135.81 378.31C134.52 381.19 129.3 382.45 124.86 383.56C120.43 384.68 115.47 386.76 115.88 389.73C116.33 392.92 122.96 395.76 120.55 398.48C121.95 397.9 123.4 397.43 124.86 397.08Z" id="a5rpOp8VWv"></path><path d="M333.49 359.16C333.49 388.52 300.44 412.33 259.66 412.33C218.88 412.33 185.83 388.52 185.83 359.16C185.83 329.79 218.88 305.98 259.66 305.98C300.44 305.98 333.49 329.79 333.49 359.16Z" id="by7pVZSYG"></path><path d="M210.93 343.58C210.93 343.58 233.08 322.63 238.99 326.93C238.99 326.93 247.35 343.04 246.37 343.04C246.37 343.04 231.11 333.91 226.19 340.89C221.27 347.88 234.56 355.4 234.56 355.4C229.83 353.03 201.08 359.16 210.93 343.58Z" id="bjkSCtfKT"></path><path d="M274.43 382.68C274.43 382.68 245.12 382.83 243.2 375.37C243.2 375.37 246.47 357.2 247.22 357.89C247.22 357.89 253.35 375.67 261.25 373.87C269.15 372.07 263.56 356.92 263.56 356.92C265.73 362.07 291.2 377.86 274.43 382.68Z" id="nqB9D09Jm"></path><path d="M284.63 320.35C284.63 320.35 299.86 347.67 294.99 353.31C294.99 353.31 279.04 359.63 279.2 358.57C279.2 358.57 290 343.67 284.51 337.21C279.02 330.75 270.01 343.8 270.01 343.8C272.93 339.11 272.19 307.16 284.63 320.35Z" id="a70rdDl3O"></path><path d="M244.4 354.86C244.4 384.23 211.34 408.03 170.57 408.03C129.79 408.03 96.73 384.23 96.73 354.86C96.73 325.49 129.79 301.69 170.57 301.69C211.34 301.69 244.4 325.49 244.4 354.86Z" id="cvnw6I4mr"></path><path d="M121.84 339.28C121.84 339.28 143.99 318.34 149.89 322.63C149.89 322.63 158.26 338.75 157.28 338.75C157.28 338.75 142.02 329.62 137.1 336.6C132.17 343.58 145.46 351.1 145.46 351.1C140.74 348.74 111.99 354.86 121.84 339.28Z" id="a5DW6yjkw7"></path><path d="M185.34 378.38C185.34 378.38 156.03 378.53 154.11 371.07C154.11 371.07 157.38 352.9 158.13 353.6C158.13 353.6 164.25 371.37 172.16 369.57C180.06 367.77 174.47 352.62 174.47 352.62C176.64 357.77 202.11 373.56 185.34 378.38Z" id="dCc1rraf0"></path><path d="M195.53 316.05C195.53 316.05 210.77 343.37 205.9 349.01C205.9 349.01 189.95 355.33 190.11 354.27C190.11 354.27 200.91 339.37 195.42 332.91C189.93 326.45 180.92 339.5 180.92 339.5C183.84 334.81 183.1 302.86 195.53 316.05Z" id="d13Yo7x6UA"></path><path d="M235.29 350.29C235.29 379.66 202.24 403.47 161.46 403.47C147.49 403.47 134.42 400.67 123.28 395.82C136.13 403.61 152.71 408.3 170.81 408.3C211.59 408.3 244.65 384.5 244.65 355.13C244.65 335.82 230.36 318.92 208.99 309.61C225.07 319.36 235.29 333.97 235.29 350.29Z" id="dj6gdxyyX"></path><path d="M324.39 354.05C324.39 383.42 291.33 407.23 250.55 407.23C236.58 407.23 223.52 404.43 212.38 399.58C225.22 407.37 241.8 412.06 259.9 412.06C300.68 412.06 333.74 388.25 333.74 358.89C333.74 339.58 319.45 322.68 298.08 313.37C314.16 323.12 324.39 337.73 324.39 354.05Z" id="bjQkmfNoJ"></path><path d="M344.73 301.17C467.69 325.37 366.72 367.02 319.02 383.41C305.18 388.17 290.85 390.98 276.36 391.8C222.54 394.82 87.19 397.52 125.7 344.67C125.7 344.67 189.19 270.55 344.73 301.17Z" id="ar4kGCPew"></path><path d="M276.36 375.15C232.76 377.6 135.66 379.83 120.82 352.5C102.09 396.68 225.56 394.11 276.36 391.26C290.85 390.45 305.18 387.63 319.02 382.88C353.99 370.86 417.57 345.28 400.61 322.94C389.19 340.47 345.75 357.58 319.02 366.76C305.18 371.52 290.85 374.33 276.36 375.15Z" id="a2wzSafcM2"></path><path d="M261.3 301.44L278.53 338.5" id="d2OYOm3dTx"></path><path d="M208.14 314.86L222.91 346.02" id="dBH9WJUx1"></path><path d="M292.31 301.44L315.45 338.5" id="anZa5eP7l"></path><path d="M208.14 349.24L363.19 327.75" id="b1t5meHVFR"></path><path d="M357.29 308.42L368.12 325.07" id="aybDMPRsb"></path><path d="M177.63 327.75L184.52 343.33" id="c1ndNk0415"></path><path d="M343.66 275.2C343.66 275.2 374.84 273.06 380.68 282.15C380.68 282.15 388.48 295.43 380.68 296.82C380.68 296.82 116.33 441.51 116.33 441.51C116.33 441.51 102.05 442.91 109.19 427.53C116.33 412.16 200.77 277.3 200.77 277.3C229.35 276.88 342.36 276.6 343.66 275.2Z" id="cqqXEBsmz"></path><path d="M203.12 361.08C171.58 361.08 146.02 346.99 146.02 341.21C146.02 335.42 171.58 333.15 203.12 333.15C234.65 333.15 260.21 335.42 260.21 341.21C260.21 346.99 234.65 361.08 203.12 361.08Z" id="a2cOfT60py"></path><path d="M260.21 340.94C260.21 346.72 234.65 351.41 203.12 351.41C171.58 351.41 146.02 346.72 146.02 340.94C146.02 335.15 171.58 330.47 203.12 330.47C234.65 330.47 260.21 335.15 260.21 340.94Z" id="dgGoH9WOd"></path><path d="M272.03 351.41C240.49 351.41 214.93 337.32 214.93 331.54C214.93 325.76 240.49 323.48 272.03 323.48C303.56 323.48 329.13 325.76 329.13 331.54C329.13 337.32 303.56 351.41 272.03 351.41Z" id="a2jAKCeLje"></path><path d="M329.13 331.27C329.13 337.06 303.56 341.74 272.03 341.74C240.49 341.74 214.93 337.06 214.93 331.27C214.93 325.49 240.49 320.8 272.03 320.8C303.56 320.8 329.13 325.49 329.13 331.27Z" id="aJInnySoy"></path><path d="M340.94 341.74C309.4 341.74 283.84 327.66 283.84 321.87C283.84 316.09 309.4 313.82 340.94 313.82C372.47 313.82 398.04 316.09 398.04 321.87C398.04 327.66 372.47 341.74 340.94 341.74Z" id="b37nFf4fz4"></path><path d="M398.04 321.6C398.04 327.39 372.47 332.08 340.94 332.08C309.4 332.08 283.84 327.39 283.84 321.6C283.84 315.82 309.4 311.13 340.94 311.13C372.47 311.13 398.04 315.82 398.04 321.6Z" id="d1twbigTEH"></path><path d="M119.19 299.82C119.19 299.82 135.25 255.58 140.49 250.36C146.35 244.52 267.33 142.13 361.59 255.43C371.57 267.57 379.69 281.4 385.62 296.38C386.76 299.21 388.02 301.76 389.25 303.1C393.07 307.27 396.35 319.19 389.25 325.15C382.15 331.1 172.98 354.35 130.66 324.85C130.66 324.85 107.18 320.68 119.19 299.82Z" id="b2Ccvic3ub"></path><path d="M235.79 239.93C233.07 239.93 230.87 239.13 230.87 238.14C230.87 237.15 233.07 236.35 235.79 236.35C237.55 236.42 239.26 237.04 240.7 238.14C239.26 239.24 237.55 239.86 235.79 239.93Z" id="c8cvaQ5JYT"></path><path d="M196.47 228.61C193.75 228.61 191.55 227.81 191.55 226.82C191.55 225.83 193.75 225.03 196.47 225.03C198.23 225.1 199.93 225.72 201.38 226.82C199.93 227.92 198.23 228.54 196.47 228.61Z" id="e2QuoVqFFN"></path><path d="M303.02 243.42C300.43 242.54 298.55 241.06 298.82 240.12C299.09 239.17 301.41 239.13 304 240.01C305.66 240.65 307.12 241.8 308.2 243.32C306.52 243.89 304.72 243.93 303.02 243.42Z" id="a5RVRyvMxI"></path><path d="M230.38 213.03C227.79 212.15 225.91 210.67 226.18 209.72C226.45 208.78 228.77 208.73 231.36 209.62C233.02 210.26 234.48 211.41 235.56 212.93C233.88 213.5 232.08 213.54 230.38 213.03Z" id="a48uI4zZ43"></path><path d="M309.57 223.76C306.98 222.87 305.1 221.39 305.37 220.45C305.64 219.51 307.96 219.46 310.55 220.34C312.21 220.98 313.67 222.13 314.75 223.65C313.07 224.23 311.27 224.27 309.57 223.76Z" id="ck8Tnj8it"></path><path d="M293.68 223.84C290.96 223.84 288.76 223.04 288.76 222.05C288.76 221.06 290.96 220.26 293.68 220.26C295.44 220.33 297.14 220.95 298.59 222.05C297.14 223.15 295.44 223.77 293.68 223.84Z" id="a8k75L5SO"></path><path d="M246.71 213.11C244 213.11 241.8 212.31 241.8 211.32C241.8 210.34 244 209.54 246.71 209.54C248.47 209.61 250.18 210.23 251.63 211.32C250.18 212.42 248.47 213.04 246.71 213.11Z" id="bMcfNfVqr"></path><path d="M282.75 213.11C280.04 213.11 277.84 212.31 277.84 211.32C277.84 210.34 280.04 209.54 282.75 209.54C284.52 209.61 286.22 210.23 287.67 211.32C286.22 212.42 284.52 213.04 282.75 213.11Z" id="b1PajBAqiH"></path><path d="M269.1 236.35C266.39 236.35 264.19 235.55 264.19 234.57C264.19 233.58 266.39 232.78 269.1 232.78C270.86 232.85 272.57 233.47 274.02 234.57C272.57 235.66 270.86 236.28 269.1 236.35Z" id="a2mQuFXtU0"></path><path d="M236.88 225.48C238.91 223.51 241.04 222.51 241.64 223.25C242.24 223.98 241.09 226.18 239.06 228.15C237.71 229.38 236.05 230.16 234.3 230.39C234.71 228.52 235.61 226.82 236.88 225.48Z" id="asnVolcGv"></path><path d="M212.31 218.93C214.33 216.96 216.46 215.96 217.06 216.69C217.67 217.43 216.51 219.63 214.49 221.6C213.13 222.83 211.48 223.6 209.73 223.83C210.14 221.96 211.03 220.26 212.31 218.93Z" id="b2haoRj1SM"></path><path d="M169.71 251.11C171.73 249.14 173.86 248.14 174.47 248.87C175.07 249.61 173.92 251.81 171.89 253.78C170.53 255.01 168.88 255.78 167.13 256.01C167.54 254.14 168.44 252.44 169.71 251.11Z" id="a1r3v29bRg"></path><path d="M264.19 215.35C266.21 213.38 268.34 212.38 268.95 213.12C269.55 213.85 268.39 216.05 266.37 218.02C265.01 219.25 263.36 220.03 261.61 220.26C262.02 218.39 262.92 216.69 264.19 215.35Z" id="doimVhiN9"></path><path d="M254.36 236.81C256.38 234.83 258.51 233.83 259.12 234.57C259.72 235.31 258.56 237.5 256.54 239.47C255.18 240.7 253.53 241.48 251.78 241.71C252.19 239.84 253.08 238.14 254.36 236.81Z" id="b2KUabUbla"></path><path d="M677.4 399.8C677.4 399.8 671.88 401.19 669.13 403.97C669.13 403.97 664.16 405.83 661.13 405.36C658.09 404.9 652.58 409.54 656.99 410.93C661.4 412.32 688.43 416.03 688.98 414.87C689.54 413.71 689.54 401.89 689.54 401.89C687.11 401.47 679.83 400.22 677.4 399.8Z" id="b2G9RVb836"></path><path d="M720.73 397.81C720.73 397.81 715.58 399.97 713.42 403.11C713.42 403.11 708.91 405.65 705.83 405.63C702.74 405.61 698.25 410.97 702.88 411.7C707.51 412.44 734.9 412.21 735.2 410.99C735.51 409.77 733.11 398.13 733.11 398.13C730.63 398.06 723.21 397.88 720.73 397.81Z" id="f1qxivCtd9"></path><path d="M686.36 219.84C679.51 219.84 673.95 224.51 673.95 230.27C673.95 236.03 679.51 240.7 686.36 240.7C693.22 240.7 698.77 236.03 698.77 230.27C698.77 224.51 693.22 219.84 686.36 219.84Z" id="ju95t1lLb"></path><path d="M700.29 240.82C702.02 241.53 703.6 242.47 704.98 243.6C704.52 243.79 702.22 244.71 698.09 246.38C689.98 245.96 685.47 245.73 684.57 245.69C684.57 245.69 685.67 240.59 683.74 238.04C681.81 235.49 696.43 232.01 696.43 232.01C697.2 233.77 697.81 239.89 700.29 240.82Z" id="aJgD33Gmo"></path><path d="M722.08 269.32C722.08 269.32 728.42 283 722.08 296.21C722.08 296.21 712.98 311.5 712.98 311.5C712.85 310.35 712.21 304.55 711.05 294.12C712.38 293.11 713.12 292.54 713.27 292.43C713.27 292.43 714.61 287.16 713.52 284.03C713.52 284.03 714.08 271.18 714.08 271.18C715.68 270.81 720.48 269.7 722.08 269.32Z" id="aN6klOelm"></path><path d="M674.64 298.99C674.64 298.99 666.64 314.29 667.47 321.7C667.47 321.7 674.64 360.4 674.64 360.4C674.64 360.4 673.82 400.73 676.3 400.73C676.3 400.73 690.64 404.44 690.64 401.89C690.64 401.89 693.12 338.16 693.12 338.16C693.12 338.16 707.19 365.04 708.57 367.13C708.57 367.13 718.77 401.89 721.8 401.89C721.8 401.89 734.21 399.57 733.39 397.95C733.39 397.95 723.18 360.17 717.94 350.9C712.7 341.63 713.81 306.64 713.81 306.64C713.22 305.56 710.28 300.15 704.98 290.41C688.8 294.99 678.69 297.85 674.64 298.99Z" id="a1oRpqlyS3"></path><path d="M674.37 223.44C674.37 223.44 672.71 220.42 673.26 220.42C673.26 220.42 674.09 219.27 674.09 219.27C674.09 219.27 674.64 219.03 674.92 219.27C674.92 219.27 675.47 217.64 675.47 217.64C675.47 217.64 675.75 216.95 676.02 217.41C676.02 217.41 676.3 217.64 676.57 216.95C676.57 216.95 678.23 215.79 678.23 215.79C678.23 215.79 683.47 216.02 684.3 215.09C684.3 215.09 694.5 214.86 696.43 216.02C696.43 216.02 706.91 221.35 705.53 224.83C705.53 224.83 699.19 235.95 699.19 237.11C699.19 237.11 697.26 238.04 696.71 236.88C696.71 236.88 691.74 234.33 691.74 233.63C691.74 233.63 689.26 226.45 687.88 226.91C687.88 226.91 684.85 231.09 684.3 230.39C683.74 229.69 682.64 225.52 682.64 225.52C680.99 225.11 674.92 225.06 674.37 223.44Z" id="drXmXMjDU"></path><path d="M706.08 242.67C702.77 241.98 695.33 240.12 695.33 240.12C695.33 240.12 687.88 241.05 685.67 241.98C683.47 242.9 675.19 244.53 674.92 247.31C674.64 250.09 677.12 276.74 675.75 279.29C674.37 281.84 669.68 306.17 671.88 305.71C674.09 305.25 672.44 299.22 682.09 298.99C691.74 298.76 696.98 293.89 700.57 299.68C704.15 305.48 714.36 309.88 714.36 309.88C714.61 308.01 714.98 306.16 715.46 304.32C716.29 301.07 713.25 293.2 713.25 293.2C713.25 293.2 713.53 274.89 714.63 272.8C715.74 270.72 720.7 257.27 720.7 257.27C720.7 257.27 709.39 243.37 706.08 242.67Z" id="eiH8KWlGD"></path><path d="M716.56 256.81C719.05 257.09 720.43 257.24 720.7 257.27C720.7 257.27 720.43 261.91 721.53 263.3C721.53 263.3 724.56 271.87 723.46 272.11C723.46 272.11 712.43 273.73 712.43 273.73C712.39 273.02 712.21 269.46 711.88 263.07L716.56 256.81Z" id="a2hvEnYuEE"></path><path d="M674.92 246.38C674.92 246.38 668.58 265.38 669.95 267.01C669.95 267.01 687.88 266.31 688.16 265.62C688.43 264.92 685.12 244.76 679.88 244.76C678.89 245.08 675.41 246.22 674.92 246.38Z" id="aJYw4Alp"></path><path d="M290.66 373.14C289.44 372.51 288.95 370.26 288.78 369.23C288.67 369.23 288.61 369.23 288.61 369.23C288.61 369.23 288.94 372.86 290.55 373.68C292.16 374.5 300.15 375.33 306.18 375.29C307.92 375.28 308.53 374.76 308.49 373.99C308.25 374.45 307.59 374.74 306.29 374.75C300.26 374.79 292.27 373.96 290.66 373.14Z" id="cHdMVJlEt"></path></defs><g><g><g><use xlink:href="#avfCvYNVu" opacity="1" fill="#b87438" fill-opacity="1"></use><g><use xlink:href="#avfCvYNVu" opacity="1" fill-opacity="0" stroke="#000000" stroke-width="1" stroke-opacity="0"></use></g></g><g><use xlink:href="#a16kOcCnjE" opacity="1" fill="#000000" fill-opacity="1"></use><g><use xlink:href="#a16kOcCnjE" opacity="1" fill-opacity="0" stroke="#000000" stroke-width="1" stroke-opacity="0"></use></g></g><g><use xlink:href="#gZTrKN95" opacity="1" fill="#61ab43" fill-opacity="1"></use><g><use xlink:href="#gZTrKN95" opacity="1" fill-opacity="0" stroke="#000000" stroke-width="1" stroke-opacity="0"></use></g></g><g><use xlink:href="#a96mCPzXU" opacity="1" fill="#000000" fill-opacity="1"></use><g><use xlink:href="#a96mCPzXU" opacity="1" fill-opacity="0" stroke="#000000" stroke-width="1" stroke-opacity="0"></use></g></g><g><use xlink:href="#c4zaHMM7Tj" opacity="1" fill="#000000" fill-opacity="1"></use><g><use xlink:href="#c4zaHMM7Tj" opacity="1" fill-opacity="0" stroke="#000000" stroke-width="1" stroke-opacity="0"></use></g></g><g><use xlink:href="#a2njHYI52q" opacity="1" fill="#000000" fill-opacity="1"></use><g><use xlink:href="#a2njHYI52q" opacity="1" fill-opacity="0" stroke="#000000" stroke-width="1" stroke-opacity="0"></use></g></g><g><use xlink:href="#a5rpOp8VWv" opacity="1" fill="#000000" fill-opacity="1"></use><g><use xlink:href="#a5rpOp8VWv" opacity="1" fill-opacity="0" stroke="#000000" stroke-width="1" stroke-opacity="0"></use></g></g><g><use xlink:href="#by7pVZSYG" opacity="1" fill="#ea565c" fill-opacity="1"></use><g><use xlink:href="#by7pVZSYG" opacity="1" fill-opacity="0" stroke="#000000" stroke-width="1" stroke-opacity="0"></use></g></g><g><use xlink:href="#bjkSCtfKT" opacity="1" fill="#ffffff" fill-opacity="1"></use><g><use xlink:href="#bjkSCtfKT" opacity="1" fill-opacity="0" stroke="#000000" stroke-width="1" stroke-opacity="0"></use></g></g><g><use xlink:href="#nqB9D09Jm" opacity="1" fill="#ffffff" fill-opacity="1"></use><g><use xlink:href="#nqB9D09Jm" opacity="1" fill-opacity="0" stroke="#000000" stroke-width="1" stroke-opacity="0"></use></g></g><g><use xlink:href="#a70rdDl3O" opacity="1" fill="#ffffff" fill-opacity="1"></use><g><use xlink:href="#a70rdDl3O" opacity="1" fill-opacity="0" stroke="#000000" stroke-width="1" stroke-opacity="0"></use></g></g><g><use xlink:href="#cvnw6I4mr" opacity="1" fill="#ea565c" fill-opacity="1"></use><g><use xlink:href="#cvnw6I4mr" opacity="1" fill-opacity="0" stroke="#000000" stroke-width="1" stroke-opacity="0"></use></g></g><g><use xlink:href="#a5DW6yjkw7" opacity="1" fill="#ffffff" fill-opacity="1"></use><g><use xlink:href="#a5DW6yjkw7" opacity="1" fill-opacity="0" stroke="#000000" stroke-width="1" stroke-opacity="0"></use></g></g><g><use xlink:href="#dCc1rraf0" opacity="1" fill="#ffffff" fill-opacity="1"></use><g><use xlink:href="#dCc1rraf0" opacity="1" fill-opacity="0" stroke="#000000" stroke-width="1" stroke-opacity="0"></use></g></g><g><use xlink:href="#d13Yo7x6UA" opacity="1" fill="#ffffff" fill-opacity="1"></use><g><use xlink:href="#d13Yo7x6UA" opacity="1" fill-opacity="0" stroke="#000000" stroke-width="1" stroke-opacity="0"></use></g></g><g><use xlink:href="#dj6gdxyyX" opacity="1" fill="#000000" fill-opacity="1"></use><g><use xlink:href="#dj6gdxyyX" opacity="1" fill-opacity="0" stroke="#000000" stroke-width="1" stroke-opacity="0"></use></g></g><g><use xlink:href="#bjQkmfNoJ" opacity="1" fill="#000000" fill-opacity="1"></use><g><use xlink:href="#bjQkmfNoJ" opacity="1" fill-opacity="0" stroke="#000000" stroke-width="1" stroke-opacity="0"></use></g></g><g><use xlink:href="#ar4kGCPew" opacity="1" fill="#714b4f" fill-opacity="1"></use><g><use xlink:href="#ar4kGCPew" opacity="1" fill-opacity="0" stroke="#000000" stroke-width="1" stroke-opacity="0"></use></g></g><g><use xlink:href="#a2wzSafcM2" opacity="1" fill="#000000" fill-opacity="1"></use><g><use xlink:href="#a2wzSafcM2" opacity="1" fill-opacity="0" stroke="#000000" stroke-width="1" stroke-opacity="0"></use></g></g><g><use xlink:href="#d2OYOm3dTx" opacity="1" fill="#000000" fill-opacity="0"></use><g><use xlink:href="#d2OYOm3dTx" opacity="1" fill-opacity="0" stroke="#000000" stroke-width="2" stroke-opacity="1"></use></g></g><g><use xlink:href="#dBH9WJUx1" opacity="1" fill="#000000" fill-opacity="0"></use><g><use xlink:href="#dBH9WJUx1" opacity="1" fill-opacity="0" stroke="#000000" stroke-width="2" stroke-opacity="1"></use></g></g><g><use xlink:href="#anZa5eP7l" opacity="1" fill="#000000" fill-opacity="0"></use><g><use xlink:href="#anZa5eP7l" opacity="1" fill-opacity="0" stroke="#000000" stroke-width="2" stroke-opacity="1"></use></g></g><g><use xlink:href="#b1t5meHVFR" opacity="1" fill="#000000" fill-opacity="0"></use><g><use xlink:href="#b1t5meHVFR" opacity="1" fill-opacity="0" stroke="#000000" stroke-width="2" stroke-opacity="1"></use></g></g><g><use xlink:href="#aybDMPRsb" opacity="1" fill="#000000" fill-opacity="0"></use><g><use xlink:href="#aybDMPRsb" opacity="1" fill-opacity="0" stroke="#000000" stroke-width="2" stroke-opacity="1"></use></g></g><g><use xlink:href="#c1ndNk0415" opacity="1" fill="#000000" fill-opacity="0"></use><g><use xlink:href="#c1ndNk0415" opacity="1" fill-opacity="0" stroke="#000000" stroke-width="2" stroke-opacity="1"></use></g></g><g><use xlink:href="#cqqXEBsmz" opacity="1" fill="#f6c964" fill-opacity="1"></use><g><use xlink:href="#cqqXEBsmz" opacity="1" fill-opacity="0" stroke="#000000" stroke-width="1" stroke-opacity="0"></use></g></g><g><use xlink:href="#a2cOfT60py" opacity="1" fill="#61ab43" fill-opacity="1"></use><g><use xlink:href="#a2cOfT60py" opacity="1" fill-opacity="0" stroke="#000000" stroke-width="1" stroke-opacity="0"></use></g></g><g><use xlink:href="#dgGoH9WOd" opacity="1" fill="#61ab43" fill-opacity="1"></use><g><use xlink:href="#dgGoH9WOd" opacity="1" fill-opacity="0" stroke="#000000" stroke-width="1" stroke-opacity="0"></use></g></g><g><use xlink:href="#a2jAKCeLje" opacity="1" fill="#61ab43" fill-opacity="1"></use><g><use xlink:href="#a2jAKCeLje" opacity="1" fill-opacity="0" stroke="#000000" stroke-width="1" stroke-opacity="0"></use></g></g><g><use xlink:href="#aJInnySoy" opacity="1" fill="#61ab43" fill-opacity="1"></use><g><use xlink:href="#aJInnySoy" opacity="1" fill-opacity="0" stroke="#000000" stroke-width="1" stroke-opacity="0"></use></g></g><g><use xlink:href="#b37nFf4fz4" opacity="1" fill="#61ab43" fill-opacity="1"></use><g><use xlink:href="#b37nFf4fz4" opacity="1" fill-opacity="0" stroke="#000000" stroke-width="1" stroke-opacity="0"></use></g></g><g><use xlink:href="#d1twbigTEH" opacity="1" fill="#61ab43" fill-opacity="1"></use><g><use xlink:href="#d1twbigTEH" opacity="1" fill-opacity="0" stroke="#000000" stroke-width="1" stroke-opacity="0"></use></g></g><g><use xlink:href="#b2Ccvic3ub" opacity="1" fill="#c67c4a" fill-opacity="1"></use><g><use xlink:href="#b2Ccvic3ub" opacity="1" fill-opacity="0" stroke="#000000" stroke-width="1" stroke-opacity="0"></use></g></g><g><use xlink:href="#c8cvaQ5JYT" opacity="1" fill="#f2f2f2" fill-opacity="1"></use><g><use xlink:href="#c8cvaQ5JYT" opacity="1" fill-opacity="0" stroke="#000000" stroke-width="1" stroke-opacity="0"></use></g></g><g><use xlink:href="#e2QuoVqFFN" opacity="1" fill="#f2f2f2" fill-opacity="1"></use><g><use xlink:href="#e2QuoVqFFN" opacity="1" fill-opacity="0" stroke="#000000" stroke-width="1" stroke-opacity="0"></use></g></g><g><use xlink:href="#a5RVRyvMxI" opacity="1" fill="#f2f2f2" fill-opacity="1"></use><g><use xlink:href="#a5RVRyvMxI" opacity="1" fill-opacity="0" stroke="#000000" stroke-width="1" stroke-opacity="0"></use></g></g><g><use xlink:href="#a48uI4zZ43" opacity="1" fill="#f2f2f2" fill-opacity="1"></use><g><use xlink:href="#a48uI4zZ43" opacity="1" fill-opacity="0" stroke="#000000" stroke-width="1" stroke-opacity="0"></use></g></g><g><use xlink:href="#ck8Tnj8it" opacity="1" fill="#f2f2f2" fill-opacity="1"></use><g><use xlink:href="#ck8Tnj8it" opacity="1" fill-opacity="0" stroke="#000000" stroke-width="1" stroke-opacity="0"></use></g></g><g><use xlink:href="#a8k75L5SO" opacity="1" fill="#f2f2f2" fill-opacity="1"></use><g><use xlink:href="#a8k75L5SO" opacity="1" fill-opacity="0" stroke="#000000" stroke-width="1" stroke-opacity="0"></use></g></g><g><use xlink:href="#bMcfNfVqr" opacity="1" fill="#f2f2f2" fill-opacity="1"></use><g><use xlink:href="#bMcfNfVqr" opacity="1" fill-opacity="0" stroke="#000000" stroke-width="1" stroke-opacity="0"></use></g></g><g><use xlink:href="#b1PajBAqiH" opacity="1" fill="#f2f2f2" fill-opacity="1"></use><g><use xlink:href="#b1PajBAqiH" opacity="1" fill-opacity="0" stroke="#000000" stroke-width="1" stroke-opacity="0"></use></g></g><g><use xlink:href="#a2mQuFXtU0" opacity="1" fill="#f2f2f2" fill-opacity="1"></use><g><use xlink:href="#a2mQuFXtU0" opacity="1" fill-opacity="0" stroke="#000000" stroke-width="1" stroke-opacity="0"></use></g></g><g><use xlink:href="#asnVolcGv" opacity="1" fill="#f2f2f2" fill-opacity="1"></use><g><use xlink:href="#asnVolcGv" opacity="1" fill-opacity="0" stroke="#000000" stroke-width="1" stroke-opacity="0"></use></g></g><g><use xlink:href="#b2haoRj1SM" opacity="1" fill="#f2f2f2" fill-opacity="1"></use><g><use xlink:href="#b2haoRj1SM" opacity="1" fill-opacity="0" stroke="#000000" stroke-width="1" stroke-opacity="0"></use></g></g><g><use xlink:href="#a1r3v29bRg" opacity="1" fill="#f2f2f2" fill-opacity="1"></use><g><use xlink:href="#a1r3v29bRg" opacity="1" fill-opacity="0" stroke="#000000" stroke-width="1" stroke-opacity="0"></use></g></g><g><use xlink:href="#doimVhiN9" opacity="1" fill="#f2f2f2" fill-opacity="1"></use><g><use xlink:href="#doimVhiN9" opacity="1" fill-opacity="0" stroke="#000000" stroke-width="1" stroke-opacity="0"></use></g></g><g><use xlink:href="#b2KUabUbla" opacity="1" fill="#f2f2f2" fill-opacity="1"></use><g><use xlink:href="#b2KUabUbla" opacity="1" fill-opacity="0" stroke="#000000" stroke-width="1" stroke-opacity="0"></use></g></g><g><use xlink:href="#b2G9RVb836" opacity="1" fill="#575a89" fill-opacity="1"></use><g><use xlink:href="#b2G9RVb836" opacity="1" fill-opacity="0" stroke="#000000" stroke-width="1" stroke-opacity="0"></use></g></g><g><use xlink:href="#f1qxivCtd9" opacity="1" fill="#575a89" fill-opacity="1"></use><g><use xlink:href="#f1qxivCtd9" opacity="1" fill-opacity="0" stroke="#000000" stroke-width="1" stroke-opacity="0"></use></g></g><g><use xlink:href="#ju95t1lLb" opacity="1" fill="#ffb9b9" fill-opacity="1"></use><g><use xlink:href="#ju95t1lLb" opacity="1" fill-opacity="0" stroke="#000000" stroke-width="1" stroke-opacity="0"></use></g></g><g><use xlink:href="#aJgD33Gmo" opacity="1" fill="#ffb9b9" fill-opacity="1"></use><g><use xlink:href="#aJgD33Gmo" opacity="1" fill-opacity="0" stroke="#000000" stroke-width="1" stroke-opacity="0"></use></g></g><g><use xlink:href="#aN6klOelm" opacity="1" fill="#ffb9b9" fill-opacity="1"></use><g><use xlink:href="#aN6klOelm" opacity="1" fill-opacity="0" stroke="#000000" stroke-width="1" stroke-opacity="0"></use></g></g><g><use xlink:href="#a1oRpqlyS3" opacity="1" fill="#3f3d56" fill-opacity="1"></use><g><use xlink:href="#a1oRpqlyS3" opacity="1" fill-opacity="0" stroke="#000000" stroke-width="1" stroke-opacity="0"></use></g></g><g><use xlink:href="#drXmXMjDU" opacity="1" fill="#3f3d56" fill-opacity="1"></use><g><use xlink:href="#drXmXMjDU" opacity="1" fill-opacity="0" stroke="#000000" stroke-width="1" stroke-opacity="0"></use></g></g><g><use xlink:href="#eiH8KWlGD" opacity="1" fill="#6c63ff" fill-opacity="1"></use><g><use xlink:href="#eiH8KWlGD" opacity="1" fill-opacity="0" stroke="#000000" stroke-width="1" stroke-opacity="0"></use></g></g><g><use xlink:href="#a2hvEnYuEE" opacity="1" fill="#6c63ff" fill-opacity="1"></use><g><use xlink:href="#a2hvEnYuEE" opacity="1" fill-opacity="0" stroke="#000000" stroke-width="1" stroke-opacity="0"></use></g></g><g><use xlink:href="#aJYw4Alp" opacity="1" fill="#6c63ff" fill-opacity="1"></use><g><use xlink:href="#aJYw4Alp" opacity="1" fill-opacity="0" stroke="#000000" stroke-width="1" stroke-opacity="0"></use></g></g><g><use xlink:href="#cHdMVJlEt" opacity="1" fill="#000000" fill-opacity="1"></use><g><use xlink:href="#cHdMVJlEt" opacity="1" fill-opacity="0" stroke="#000000" stroke-width="1" stroke-opacity="0"></use></g></g></g></g></svg>