<?xml version="1.0" encoding="UTF-8" standalone="no"?>
<!DOCTYPE svg PUBLIC "-//W3C//DTD SVG 1.1//EN" "http://www.w3.org/Graphics/SVG/1.1/DTD/svg11.dtd">
<svg version="1.1" xmlns="http://www.w3.org/2000/svg" xmlns:xlink="http://www.w3.org/1999/xlink" preserveAspectRatio="xMidYMid meet" viewBox="0 0 640 640" width="677" height="677"><defs><path d="M426.91 839.79C430.05 834.13 434.27 830.95 439.45 830.37C439.45 830.48 439.49 831.35 439.5 831.46C434.53 832.03 430.49 835.07 427.47 840.49C419.15 855.47 421.21 884 421.24 884.29C421.1 884.31 420.65 884.39 420.51 884.41C420.49 884.12 418.38 855.13 426.91 839.79Z" id="bRFlAzQue"></path><path d="M426.91 839.79C430.05 834.13 434.27 830.95 439.45 830.37C439.45 830.48 439.49 831.35 439.5 831.46C434.53 832.03 430.49 835.07 427.47 840.49C419.15 855.47 421.21 884 421.24 884.29C421.1 884.31 420.65 884.39 420.51 884.41C420.49 884.12 418.38 855.13 426.91 839.79Z" id="a35WwHC505"></path><path d="M129.71 463.9C129.71 537.02 129.71 577.65 129.71 585.78C129.71 585.78 129.71 585.78 129.71 585.78C129.27 585.78 129.02 585.78 128.97 585.78C128.97 585.78 128.97 585.78 128.97 585.78C128.97 512.65 128.97 472.02 128.97 463.9C128.97 463.9 128.97 463.9 128.97 463.9C129.41 463.9 129.67 463.9 129.71 463.9C129.71 463.9 129.71 463.9 129.71 463.9Z" id="aB88YPCdH"></path><path d="M129.71 463.9C129.71 537.02 129.71 577.65 129.71 585.78C129.71 585.78 129.71 585.78 129.71 585.78C129.27 585.78 129.02 585.78 128.97 585.78C128.97 585.78 128.97 585.78 128.97 585.78C128.97 512.65 128.97 472.02 128.97 463.9C128.97 463.9 128.97 463.9 128.97 463.9C129.41 463.9 129.67 463.9 129.71 463.9C129.71 463.9 129.71 463.9 129.71 463.9Z" id="a1xh5zPErH"></path><path d="M433.41 830.91C433.41 835.88 436.13 839.92 439.47 839.92C442.82 839.92 445.52 835.88 445.52 830.91C445.52 825.94 442.82 821.92 439.47 821.92C436.13 821.92 433.41 825.94 433.41 830.91Z" id="cl9QLJfsw"></path><path d="M433.41 830.91C433.41 835.88 436.13 839.92 439.47 839.92C442.82 839.92 445.52 835.88 445.52 830.91C445.52 825.94 442.82 821.92 439.47 821.92C436.13 821.92 433.41 825.94 433.41 830.91Z" id="a2ttDV5xo"></path><path d="M365.58 316.74C363.7 387.72 332.24 442.32 295.31 438.72C261.34 435.39 234.07 383.66 231.9 318.42C231.76 314.33 231.78 311.01 231.76 310.19C231.74 283.53 236.04 257.54 244.07 235.81C245.03 233.19 245.88 231.18 246.08 230.66C246.56 229.48 247.04 228.33 247.54 227.2C271.06 173.67 312.52 166.11 340.85 210.18C341.65 211.44 342.44 212.72 343.21 214.05C344.14 215.64 344.86 216.98 345.04 217.3C356.83 238.96 364.08 268.15 365.43 299.37C365.59 302.94 365.66 306.55 365.66 310.19C365.66 310.65 365.66 310.92 365.66 310.96C365.65 313.86 365.59 316.17 365.58 316.74Z" id="aoJaNWgM3"></path><path d="M365.58 316.74C363.7 387.72 332.24 442.32 295.31 438.72C261.34 435.39 234.07 383.66 231.9 318.42C231.76 314.33 231.78 311.01 231.76 310.19C231.74 283.53 236.04 257.54 244.07 235.81C245.03 233.19 245.88 231.18 246.08 230.66C246.56 229.48 247.04 228.33 247.54 227.2C271.06 173.67 312.52 166.11 340.85 210.18C341.65 211.44 342.44 212.72 343.21 214.05C344.14 215.64 344.86 216.98 345.04 217.3C356.83 238.96 364.08 268.15 365.43 299.37C365.59 302.94 365.66 306.55 365.66 310.19C365.66 310.65 365.66 310.92 365.66 310.96C365.65 313.86 365.59 316.17 365.58 316.74Z" id="g52PJ4wzsk"></path><path d="M246.16 230.76C246.52 231.33 246.08 232.42 246.13 233.33C246.2 234.48 247 234.73 247.6 234.84C248.2 234.97 248.98 235.91 248.69 236.94C247.17 237.95 245.63 236.96 244.07 235.81C236.04 257.54 231.74 283.53 231.76 310.19C231.76 314.35 231.88 317.59 231.9 318.42C232.02 318.6 232.16 318.74 232.31 318.85C232.76 319.18 233.29 319.12 233.71 319.6C234.05 319.97 234.27 320.63 234.6 320.98C235.55 321.98 236.87 320.07 237.76 321.26C237.99 321.65 238.21 322.09 238.42 322.54C239.23 323.89 240.58 322.98 241.53 324.01C242.14 324.66 242.45 325.98 242.78 327.17C243.6 330.14 244.92 333.06 246.66 333.3C247.21 333.25 247.76 333.29 248.31 333.4C248.85 333.64 249.38 334.55 249.29 335.58C249.14 337.38 249.6 339.34 249.47 341.14C249.25 344.42 246.84 345.86 246.63 349.14C246.63 349.86 246.61 350.58 246.57 351.29C246.46 352.16 246.12 352.86 246.01 353.71C245.77 355.34 246.38 356.95 247.04 358.04C247.71 359.13 248.5 360.08 248.86 361.59C249.25 363.22 249.06 365.11 249.18 366.86C249.45 370.71 251.18 373.55 252.96 375.38C253.53 375.85 254.03 376.55 254.43 377.46C254.88 378.72 254.84 380.4 255 381.91C255.37 385.62 256.99 388.67 257.04 392.44C257.07 395.12 256.3 397.56 255.84 400.09C255.35 402.74 255.21 405.58 255.41 408.35C258.01 412.58 260.77 416.43 263.68 419.86C263.84 419.41 263.94 418.92 264.02 418.39C264.13 417.2 263.85 416.01 263.31 415.38C263.79 415.03 264.25 414.48 264.62 413.77C264.99 413.03 265.08 411.92 264.85 410.98C265.65 411.18 266.61 411.28 267.13 410.09C267.56 409.15 267.54 407.74 267.37 406.53C267.2 405.33 266.91 404.15 266.91 402.91C268.76 403.08 270.62 402.96 272.47 402.54C272.21 400.82 271.59 399.35 270.78 398.47C271.62 398.2 272.38 396.27 272.64 394.72C272.87 393.15 272.88 391.47 272.68 389.89C272.62 389.47 272.61 389.03 272.65 388.63C272.79 388.07 273.02 387.63 273.32 387.38C275.39 385.09 277.06 383.27 277.47 382.8C277.71 382.57 277.94 382.24 278.14 381.87C278.57 380.87 278.51 379.4 278.28 378.18C278.05 376.97 277.7 375.82 277.62 374.54C277.37 370.71 279.49 367.96 280.21 364.35C280.45 362.92 280.59 361.41 280.6 359.9C280.66 358.28 280.66 356.39 280.02 355.35C279.39 354.34 278.42 354.57 277.78 353.63C277.17 352.78 276.97 351.12 276.32 350.44C275.73 349.81 274.99 350.2 274.33 349.91C273.18 349.39 272.45 346.83 271.27 346.59C270.6 346.45 269.84 347.08 269.29 346.34C268.81 345.66 268.79 344.35 268.7 343.23C268.37 339.66 266.92 336.86 265.06 336.21C264.38 336 263.62 336.07 263.03 335.35C262.44 334.62 262.18 333.25 261.7 332.21C260.96 330.57 259.78 330 258.67 329.49C256.42 328.49 254.62 327.66 254.17 327.46C253.36 327.1 252.34 326.9 251.9 328.25C251.78 328.77 251.69 329.31 251.64 329.87C251.31 331.94 250.32 333.37 249.19 333.4C248.82 332.17 248.2 331.26 247.49 330.87C247.02 330.71 246.56 330.5 246.1 330.24C245.14 329.33 244.75 327.1 245.21 325.25C245.23 325.18 245.24 325.13 245.27 325.07C245.79 323.24 245.63 320.95 244.85 319.48C244.08 318.17 242.98 317.85 241.95 317.97C241.68 316.84 242.13 315.58 242.61 314.75C243.1 313.94 243.69 313.13 243.8 311.91C243.97 309.98 242.69 308.52 241.71 309.08C240.74 309.67 240.12 311.48 239.72 313.27C239.52 314.32 239.24 315.31 238.9 316.24C238.55 317.16 237.96 317.62 237.38 317.44C236.58 317.05 236.27 315.21 236.09 313.67C235.81 311.62 235.66 309.49 235.67 307.36C235.67 305.22 236.11 303.15 236.91 301.62C238.23 299.27 240.27 299.51 242.06 299.89C241.66 298.86 241.73 297.44 242.19 296.55C242.68 295.73 243.35 295.41 243.98 295.71C244.52 295.92 245 296.48 245.36 297.3C245.87 298.49 246.02 300.11 246.4 301.45C246.79 302.81 247.65 303.97 248.35 303.25C248.98 302.62 249.07 300.98 248.91 299.68C248.76 298.39 248.44 297.11 248.49 295.78C248.6 293.25 249.97 291.72 251.17 290.67C252.38 289.64 253.76 288.22 253.95 285.7C253.96 285.21 254.02 284.74 254.1 284.28C254.23 283.86 254.42 283.52 254.64 283.3C258.16 278.82 261.74 274.28 265.77 271.84C265.98 271.72 266 271.86 266.22 271.76C266.52 271.42 266.32 270.5 266.03 270.14C265.75 269.77 265.37 269.48 265.29 268.83C265.24 268.36 265.39 267.88 265.42 267.41C265.45 266.43 265.06 265.57 264.56 265.52C264.44 265.5 264.32 265.53 264.21 265.6C263.88 264.77 264.52 263.82 265.04 263.54C266.59 262.73 268.19 262.23 269.8 262.06C269.99 262 270.18 262.06 270.34 262.23C270.59 262.69 270.6 263.43 270.38 263.93C270.17 264.4 269.92 264.82 269.66 265.19C269.12 266.19 268.93 267.67 269.14 269.04C269.98 269.87 270.9 270.71 271.83 270.43C272.76 270.14 273.58 268.12 273.14 266.52C272.74 265.03 271.51 264.68 271.3 263.04C271.06 261.13 272.47 259.43 272.15 257.55C272.02 256.73 271.58 256.24 271.26 255.65C270.46 254.15 270.23 251.88 270.67 249.92C269.59 250.29 268.48 249.63 267.7 248.14C266.99 246.76 266.43 244.59 265.41 244.66C264.49 244.71 263.69 246.79 262.82 246.16C262.61 245.99 262.39 245.68 262.19 245.86C262.05 246.03 261.95 246.31 261.94 246.62C261.72 248.65 262.1 250.94 261.53 252.69C260.91 254.6 259.46 254.86 258.71 256.57C258.3 257.51 258.14 258.76 257.76 259.74C257.38 260.71 256.59 261.34 256.13 260.49C256.59 258.69 256.33 256.5 255.52 255.24C255.1 254.71 254.64 254.29 254.17 253.98C253.64 253.55 253.13 253 252.66 252.37C252.42 252.09 252.23 251.7 252.11 251.22C252.01 250.64 252.02 250.01 252.15 249.43C252.61 246.86 253.78 244.98 255.19 244.57C255.79 244.42 256.5 244.48 256.89 243.59C257.1 243.12 257.22 242.42 257.53 242.24C257.72 242.15 257.93 242.19 258.11 242.36C258.86 242.87 259.6 243.37 260.36 243.89C260.6 244.11 260.88 244.2 261.15 244.14C261.44 244.07 261.64 243.59 261.63 243.05C261.55 242.32 260.98 241.98 261.04 241.26C261.06 241.02 261.12 240.81 261.22 240.64C262.86 237.28 265.2 235.5 267.6 235.81C267.88 236.71 267.44 237.77 267.06 238.53C266.68 239.3 266.38 240.67 266.84 241.26C267.02 241.44 267.23 241.52 267.44 241.51C267.99 241.66 268.53 241.97 269.03 242.45C269.81 243.09 270.57 243.8 271.32 244.57C271.21 243.64 271.23 242.66 271.37 241.75C271.54 240.81 272.06 240.28 272.56 240.5C273.01 240.84 273.23 241.97 273.71 242.08C274.34 242.22 274.6 240.42 274.33 239.3C274.07 238.18 273.54 237.25 273.5 236.02C273.47 235.19 273.63 234.17 273.29 233.67C273.17 233.51 273.03 233.42 272.88 233.39C268.59 231.88 265.16 230.66 264.3 230.36C263.78 230.18 263.05 230.32 263.03 231.3C263.02 231.86 263.28 232.42 263.16 232.93C263.04 233.47 262.64 233.43 262.35 233.61C261.9 234 261.64 234.93 261.71 235.87C261.79 236.78 261.98 237.64 262.25 238.4C261.69 237.95 260.85 237.87 260.28 237.42C260.2 236.17 260.04 234.94 259.79 233.78C259.74 233.08 259.4 232.59 259.04 232.7C259 232.7 258.96 232.73 258.92 232.74C258.18 232.97 257.45 233.18 256.71 233.4C256.52 233.42 256.34 233.54 256.21 233.78C255.92 234.35 256.21 235.29 256.19 236.1C256.13 237.03 255.78 237.78 255.31 237.98C254.85 238.16 254.37 238.15 253.91 237.95C252.88 237.64 251.85 237.34 250.81 237.03C251.72 236.47 252.54 235.43 253.15 234.02C253.56 233.09 253.78 231.36 253.19 230.92C253.01 230.83 252.83 230.8 252.65 230.84C251.25 230.85 250.14 228.61 248.83 227.66C248.42 227.35 247.98 227.2 247.54 227.2C247.25 227.89 246.37 229.97 246.08 230.66C246.11 230.69 246.14 230.71 246.16 230.76Z" id="b2VPOSsGM9"></path><path d="M246.16 230.76C246.52 231.33 246.08 232.42 246.13 233.33C246.2 234.48 247 234.73 247.6 234.84C248.2 234.97 248.98 235.91 248.69 236.94C247.17 237.95 245.63 236.96 244.07 235.81C236.04 257.54 231.74 283.53 231.76 310.19C231.76 314.35 231.88 317.59 231.9 318.42C232.02 318.6 232.16 318.74 232.31 318.85C232.76 319.18 233.29 319.12 233.71 319.6C234.05 319.97 234.27 320.63 234.6 320.98C235.55 321.98 236.87 320.07 237.76 321.26C237.99 321.65 238.21 322.09 238.42 322.54C239.23 323.89 240.58 322.98 241.53 324.01C242.14 324.66 242.45 325.98 242.78 327.17C243.6 330.14 244.92 333.06 246.66 333.3C247.21 333.25 247.76 333.29 248.31 333.4C248.85 333.64 249.38 334.55 249.29 335.58C249.14 337.38 249.6 339.34 249.47 341.14C249.25 344.42 246.84 345.86 246.63 349.14C246.63 349.86 246.61 350.58 246.57 351.29C246.46 352.16 246.12 352.86 246.01 353.71C245.77 355.34 246.38 356.95 247.04 358.04C247.71 359.13 248.5 360.08 248.86 361.59C249.25 363.22 249.06 365.11 249.18 366.86C249.45 370.71 251.18 373.55 252.96 375.38C253.53 375.85 254.03 376.55 254.43 377.46C254.88 378.72 254.84 380.4 255 381.91C255.37 385.62 256.99 388.67 257.04 392.44C257.07 395.12 256.3 397.56 255.84 400.09C255.35 402.74 255.21 405.58 255.41 408.35C258.01 412.58 260.77 416.43 263.68 419.86C263.84 419.41 263.94 418.92 264.02 418.39C264.13 417.2 263.85 416.01 263.31 415.38C263.79 415.03 264.25 414.48 264.62 413.77C264.99 413.03 265.08 411.92 264.85 410.98C265.65 411.18 266.61 411.28 267.13 410.09C267.56 409.15 267.54 407.74 267.37 406.53C267.2 405.33 266.91 404.15 266.91 402.91C268.76 403.08 270.62 402.96 272.47 402.54C272.21 400.82 271.59 399.35 270.78 398.47C271.62 398.2 272.38 396.27 272.64 394.72C272.87 393.15 272.88 391.47 272.68 389.89C272.62 389.47 272.61 389.03 272.65 388.63C272.79 388.07 273.02 387.63 273.32 387.38C275.39 385.09 277.06 383.27 277.47 382.8C277.71 382.57 277.94 382.24 278.14 381.87C278.57 380.87 278.51 379.4 278.28 378.18C278.05 376.97 277.7 375.82 277.62 374.54C277.37 370.71 279.49 367.96 280.21 364.35C280.45 362.92 280.59 361.41 280.6 359.9C280.66 358.28 280.66 356.39 280.02 355.35C279.39 354.34 278.42 354.57 277.78 353.63C277.17 352.78 276.97 351.12 276.32 350.44C275.73 349.81 274.99 350.2 274.33 349.91C273.18 349.39 272.45 346.83 271.27 346.59C270.6 346.45 269.84 347.08 269.29 346.34C268.81 345.66 268.79 344.35 268.7 343.23C268.37 339.66 266.92 336.86 265.06 336.21C264.38 336 263.62 336.07 263.03 335.35C262.44 334.62 262.18 333.25 261.7 332.21C260.96 330.57 259.78 330 258.67 329.49C256.42 328.49 254.62 327.66 254.17 327.46C253.36 327.1 252.34 326.9 251.9 328.25C251.78 328.77 251.69 329.31 251.64 329.87C251.31 331.94 250.32 333.37 249.19 333.4C248.82 332.17 248.2 331.26 247.49 330.87C247.02 330.71 246.56 330.5 246.1 330.24C245.14 329.33 244.75 327.1 245.21 325.25C245.23 325.18 245.24 325.13 245.27 325.07C245.79 323.24 245.63 320.95 244.85 319.48C244.08 318.17 242.98 317.85 241.95 317.97C241.68 316.84 242.13 315.58 242.61 314.75C243.1 313.94 243.69 313.13 243.8 311.91C243.97 309.98 242.69 308.52 241.71 309.08C240.74 309.67 240.12 311.48 239.72 313.27C239.52 314.32 239.24 315.31 238.9 316.24C238.55 317.16 237.96 317.62 237.38 317.44C236.58 317.05 236.27 315.21 236.09 313.67C235.81 311.62 235.66 309.49 235.67 307.36C235.67 305.22 236.11 303.15 236.91 301.62C238.23 299.27 240.27 299.51 242.06 299.89C241.66 298.86 241.73 297.44 242.19 296.55C242.68 295.73 243.35 295.41 243.98 295.71C244.52 295.92 245 296.48 245.36 297.3C245.87 298.49 246.02 300.11 246.4 301.45C246.79 302.81 247.65 303.97 248.35 303.25C248.98 302.62 249.07 300.98 248.91 299.68C248.76 298.39 248.44 297.11 248.49 295.78C248.6 293.25 249.97 291.72 251.17 290.67C252.38 289.64 253.76 288.22 253.95 285.7C253.96 285.21 254.02 284.74 254.1 284.28C254.23 283.86 254.42 283.52 254.64 283.3C258.16 278.82 261.74 274.28 265.77 271.84C265.98 271.72 266 271.86 266.22 271.76C266.52 271.42 266.32 270.5 266.03 270.14C265.75 269.77 265.37 269.48 265.29 268.83C265.24 268.36 265.39 267.88 265.42 267.41C265.45 266.43 265.06 265.57 264.56 265.52C264.44 265.5 264.32 265.53 264.21 265.6C263.88 264.77 264.52 263.82 265.04 263.54C266.59 262.73 268.19 262.23 269.8 262.06C269.99 262 270.18 262.06 270.34 262.23C270.59 262.69 270.6 263.43 270.38 263.93C270.17 264.4 269.92 264.82 269.66 265.19C269.12 266.19 268.93 267.67 269.14 269.04C269.98 269.87 270.9 270.71 271.83 270.43C272.76 270.14 273.58 268.12 273.14 266.52C272.74 265.03 271.51 264.68 271.3 263.04C271.06 261.13 272.47 259.43 272.15 257.55C272.02 256.73 271.58 256.24 271.26 255.65C270.46 254.15 270.23 251.88 270.67 249.92C269.59 250.29 268.48 249.63 267.7 248.14C266.99 246.76 266.43 244.59 265.41 244.66C264.49 244.71 263.69 246.79 262.82 246.16C262.61 245.99 262.39 245.68 262.19 245.86C262.05 246.03 261.95 246.31 261.94 246.62C261.72 248.65 262.1 250.94 261.53 252.69C260.91 254.6 259.46 254.86 258.71 256.57C258.3 257.51 258.14 258.76 257.76 259.74C257.38 260.71 256.59 261.34 256.13 260.49C256.59 258.69 256.33 256.5 255.52 255.24C255.1 254.71 254.64 254.29 254.17 253.98C253.64 253.55 253.13 253 252.66 252.37C252.42 252.09 252.23 251.7 252.11 251.22C252.01 250.64 252.02 250.01 252.15 249.43C252.61 246.86 253.78 244.98 255.19 244.57C255.79 244.42 256.5 244.48 256.89 243.59C257.1 243.12 257.22 242.42 257.53 242.24C257.72 242.15 257.93 242.19 258.11 242.36C258.86 242.87 259.6 243.37 260.36 243.89C260.6 244.11 260.88 244.2 261.15 244.14C261.44 244.07 261.64 243.59 261.63 243.05C261.55 242.32 260.98 241.98 261.04 241.26C261.06 241.02 261.12 240.81 261.22 240.64C262.86 237.28 265.2 235.5 267.6 235.81C267.88 236.71 267.44 237.77 267.06 238.53C266.68 239.3 266.38 240.67 266.84 241.26C267.02 241.44 267.23 241.52 267.44 241.51C267.99 241.66 268.53 241.97 269.03 242.45C269.81 243.09 270.57 243.8 271.32 244.57C271.21 243.64 271.23 242.66 271.37 241.75C271.54 240.81 272.06 240.28 272.56 240.5C273.01 240.84 273.23 241.97 273.71 242.08C274.34 242.22 274.6 240.42 274.33 239.3C274.07 238.18 273.54 237.25 273.5 236.02C273.47 235.19 273.63 234.17 273.29 233.67C273.17 233.51 273.03 233.42 272.88 233.39C268.59 231.88 265.16 230.66 264.3 230.36C263.78 230.18 263.05 230.32 263.03 231.3C263.02 231.86 263.28 232.42 263.16 232.93C263.04 233.47 262.64 233.43 262.35 233.61C261.9 234 261.64 234.93 261.71 235.87C261.79 236.78 261.98 237.64 262.25 238.4C261.69 237.95 260.85 237.87 260.28 237.42C260.2 236.17 260.04 234.94 259.79 233.78C259.74 233.08 259.4 232.59 259.04 232.7C259 232.7 258.96 232.73 258.92 232.74C258.18 232.97 257.45 233.18 256.71 233.4C256.52 233.42 256.34 233.54 256.21 233.78C255.92 234.35 256.21 235.29 256.19 236.1C256.13 237.03 255.78 237.78 255.31 237.98C254.85 238.16 254.37 238.15 253.91 237.95C252.88 237.64 251.85 237.34 250.81 237.03C251.72 236.47 252.54 235.43 253.15 234.02C253.56 233.09 253.78 231.36 253.19 230.92C253.01 230.83 252.83 230.8 252.65 230.84C251.25 230.85 250.14 228.61 248.83 227.66C248.42 227.35 247.98 227.2 247.54 227.2C247.25 227.89 246.37 229.97 246.08 230.66C246.11 230.69 246.14 230.71 246.16 230.76Z" id="by0HmNNYr"></path><path d="M364.18 318.01C362.76 317.78 362.15 313.83 360.75 313.38C360.62 313.31 360.48 313.34 360.37 313.45C360.16 313.66 360.12 314.21 360.11 314.67C360.05 316.92 360 319.27 360.46 321.35C361.13 324.4 362.86 326.96 362.5 330.18C360.55 328.44 359.52 324.22 359.07 320.16C358.6 316.11 358.53 311.85 357.69 308.02C357.06 309.57 355.74 308.3 355.17 306.66C354.62 305.12 354.29 303.34 353.76 301.78C353.23 300.21 352.42 298.81 351.46 298.72C350.43 298.64 349.55 299.98 348.78 301.24C348.11 302.2 347.54 303.41 347.11 304.8C346.57 306.9 346.71 309.36 346.69 311.7C346.66 314.22 346.38 316.89 345.49 318.76C344.59 320.6 342.94 321.25 341.94 319.57C341.47 318.62 341.13 317.44 340.96 316.15C339.88 310.13 338.98 304 338.28 297.79C338.12 299.2 337.46 301.03 336.85 300.21C336.71 299.98 336.6 299.7 336.52 299.38C335.36 295.63 333.22 293.36 331.06 292.02C328.9 290.66 326.63 290.03 324.49 288.55C323.3 287.71 322.15 286.61 321.08 285.28C320.53 286.85 320.47 288.87 320.92 290.55C321.41 292.21 322.42 293.03 323.38 292.54C323.86 292.24 324.26 291.61 324.73 291.29C325.2 290.98 325.84 291.14 326.04 292.02C326.24 292.84 325.94 293.85 326.09 294.72C326.31 296.05 327.36 296.15 327.72 297.37C327.94 298.35 327.8 299.48 327.38 300.18C326.96 300.84 326.49 301.38 326.01 301.8C324.47 303.44 323.38 306.24 322.04 308.41C320.7 310.58 318.82 312.18 317.22 310.78C317.6 307.08 315.31 304.37 314.89 300.68C314.74 299.47 314.81 298.18 314.62 296.99C314.34 295.28 313.54 294.1 312.89 292.8C311.3 289.6 310.46 285.28 310.55 280.86C310.58 279.33 310.73 277.78 310.55 276.3C310.37 274.81 309.73 273.38 308.94 273.44C307.13 273.61 304.85 273.86 303.89 270.89C303.56 269.84 303.41 268.29 303.9 267.48C304.25 266.9 304.76 266.96 305.22 267.04C306.57 267.29 307.93 267.56 309.3 267.81C310.25 267.99 311.27 268.13 312.1 267.18C312.91 266.23 313.27 263.68 312.51 262.55C311.96 261.74 310.97 261.78 310.8 260.48C310.67 259.37 311.29 258.14 310.95 257.23C310.71 256.57 310.16 256.75 309.83 257.24C309.54 257.82 309.23 258.35 308.89 258.83C308.24 259.47 307.47 258.85 306.76 258.43C306.06 258.01 305.12 257.97 304.78 259.23C304.4 260.62 305.12 262.46 304.75 263.86C304.24 265.71 302.56 264.66 301.85 266.24C301.06 268.06 302.4 270.79 302.14 273.13C301.43 273.8 300.6 273.71 299.94 272.89C299.29 272.04 298.94 270.58 299.01 269.07C299.09 268.02 299.37 266.94 299.18 265.96C298.97 265.19 298.63 264.59 298.22 264.27C296.23 262.16 294.65 260.48 294.26 260.06C293.89 261.37 294.35 263 294.93 263.98C295.51 264.96 296.24 265.71 296.62 267C297.12 268.86 296.78 271.16 295.85 272.24C295.73 272.39 295.59 272.43 295.45 272.36C295.32 272.22 295.23 271.98 295.2 271.72C294.5 268.27 293.44 264.89 291.77 263.09C290.09 261.29 287.68 261.67 286.58 264.68C286.32 265.4 286.14 266.22 285.92 266.99C284.71 271.02 282.11 272.92 279.69 272.81C279.45 272.84 279.21 272.73 279.01 272.5C278.61 271.98 278.63 270.88 278.7 269.97C278.78 268.68 278.87 267.41 278.95 266.12C278.95 265.33 279.11 264.58 279.39 264C279.84 263.32 280.49 263.75 281.06 263.74C281.95 263.65 282.71 262.52 282.98 260.9C283.22 259.26 282.96 257.51 282.31 256.35C282.06 255.87 281.71 255.27 281.85 254.64C281.95 254.28 282.14 254.04 282.35 253.97C283.38 253.39 284.47 253.25 285.47 252.57C286.49 251.9 287.47 250.51 287.71 248.51C287.78 247.89 287.81 247.15 288.1 246.84C288.24 246.73 288.4 246.67 288.56 246.67C289.69 246.35 290.51 244.43 290.45 242.24C290.94 241.58 291.61 242.07 292.09 242.75C292.55 243.45 292.97 244.36 293.54 244.66C294.59 245.22 295.62 243.4 296.72 243.4C297.18 243.4 297.67 243.71 298.09 243.4C298.54 243.09 298.8 242.25 299.14 241.63C299.48 241 300.07 240.63 300.39 241.3C300.3 240.04 300.21 238.78 300.12 237.52C301.2 238.04 302.35 237.63 303.27 236.41C302.13 235.67 300.99 234.91 299.84 234.17C299.72 234.12 299.6 234 299.51 233.85C299.26 233.33 299.51 232.52 299.71 231.93C300.21 230.53 300.28 228.21 299.48 227.51C298.94 227.02 298.31 227.61 297.79 228.17C296.95 229.06 296.12 229.96 295.27 230.85C295.2 231.76 295.78 232.3 296.14 232.91C296.74 233.93 296.79 235.7 296.26 236.85C295.99 237.43 295.6 237.77 295.2 237.78C295.52 238.62 295.64 239.7 295.51 240.74C294.95 240.81 294.39 240.89 293.82 240.98C293.63 241.05 293.44 240.96 293.28 240.77C293.09 240.46 293.12 239.91 293.08 239.45C292.92 238.34 292.44 237.52 291.83 237.38C291.25 237.25 290.67 237.36 290.11 237.69C289.87 237.85 289.6 237.84 289.36 237.66C289.23 237.48 289.13 237.22 289.08 236.93C288.88 235.71 289.01 234.38 289.46 233.42C289.89 232.48 290.38 231.62 290.89 230.87C292.08 228.88 292.94 226.3 293.4 223.43C294.33 222.68 295.29 221.66 296.22 220.9C296.97 220.24 297.75 219.72 298.57 219.39C299.33 219.16 300.1 219.09 300.86 219.18C301.92 219.22 302.96 219.25 304.01 219.29C304.95 219.22 305.88 219.47 306.77 220.06C307.63 220.75 308.39 222.22 308.45 224.01C308.48 224.41 308.41 224.83 308.25 225.11C308.12 225.24 307.98 225.31 307.85 225.3C306.98 225.34 306.61 225.76 305.74 225.83C306.29 226.95 306.91 228.15 307.71 228.35C309.13 228.7 310.14 225.88 310.79 223.45C310.84 224.74 311.41 225.72 312.09 225.66C312.43 225.55 312.77 225.3 313.07 224.92C315.87 221.98 319.01 220.42 322.2 220.4C322.14 219.43 322.45 218.52 322.95 218.31C323.61 218.06 324.19 219.14 324.49 220.26C324.81 221.38 325 222.68 325.51 223.52C326.01 224.36 326.97 224.32 327.16 223.1C327.35 221.94 326.71 220.94 326.2 220.26C325.67 219.57 325.12 218.3 325.47 217.29C328.15 216.14 330.85 214.99 333.59 214.77C334.06 214.8 334.52 214.64 334.96 214.32C335.4 213.96 335.67 213.07 335.6 212.15C334.38 212.7 333.1 211.77 332.37 209.81C335.18 209.37 338.14 208.97 340.85 210.18C341.08 210.57 342.98 213.66 343.21 214.05C342.77 214.95 342.17 215.8 342.49 216.7C342.72 217.12 343.02 217.33 343.33 217.26C343.9 217.27 344.47 217.3 345.04 217.3C356.83 238.96 364.08 268.15 365.43 299.37C364.48 299.3 363.59 301.64 363.72 303.67C363.87 306.02 364.74 307.91 365.38 309.94C365.48 310.27 365.58 310.61 365.66 310.96C365.64 312.12 365.59 315.58 365.58 316.74C365.25 317.58 364.73 318.06 364.18 318.01Z" id="gzvgARMCQ"></path><path d="M364.18 318.01C362.76 317.78 362.15 313.83 360.75 313.38C360.62 313.31 360.48 313.34 360.37 313.45C360.16 313.66 360.12 314.21 360.11 314.67C360.05 316.92 360 319.27 360.46 321.35C361.13 324.4 362.86 326.96 362.5 330.18C360.55 328.44 359.52 324.22 359.07 320.16C358.6 316.11 358.53 311.85 357.69 308.02C357.06 309.57 355.74 308.3 355.17 306.66C354.62 305.12 354.29 303.34 353.76 301.78C353.23 300.21 352.42 298.81 351.46 298.72C350.43 298.64 349.55 299.98 348.78 301.24C348.11 302.2 347.54 303.41 347.11 304.8C346.57 306.9 346.71 309.36 346.69 311.7C346.66 314.22 346.38 316.89 345.49 318.76C344.59 320.6 342.94 321.25 341.94 319.57C341.47 318.62 341.13 317.44 340.96 316.15C339.88 310.13 338.98 304 338.28 297.79C338.12 299.2 337.46 301.03 336.85 300.21C336.71 299.98 336.6 299.7 336.52 299.38C335.36 295.63 333.22 293.36 331.06 292.02C328.9 290.66 326.63 290.03 324.49 288.55C323.3 287.71 322.15 286.61 321.08 285.28C320.53 286.85 320.47 288.87 320.92 290.55C321.41 292.21 322.42 293.03 323.38 292.54C323.86 292.24 324.26 291.61 324.73 291.29C325.2 290.98 325.84 291.14 326.04 292.02C326.24 292.84 325.94 293.85 326.09 294.72C326.31 296.05 327.36 296.15 327.72 297.37C327.94 298.35 327.8 299.48 327.38 300.18C326.96 300.84 326.49 301.38 326.01 301.8C324.47 303.44 323.38 306.24 322.04 308.41C320.7 310.58 318.82 312.18 317.22 310.78C317.6 307.08 315.31 304.37 314.89 300.68C314.74 299.47 314.81 298.18 314.62 296.99C314.34 295.28 313.54 294.1 312.89 292.8C311.3 289.6 310.46 285.28 310.55 280.86C310.58 279.33 310.73 277.78 310.55 276.3C310.37 274.81 309.73 273.38 308.94 273.44C307.13 273.61 304.85 273.86 303.89 270.89C303.56 269.84 303.41 268.29 303.9 267.48C304.25 266.9 304.76 266.96 305.22 267.04C306.57 267.29 307.93 267.56 309.3 267.81C310.25 267.99 311.27 268.13 312.1 267.18C312.91 266.23 313.27 263.68 312.51 262.55C311.96 261.74 310.97 261.78 310.8 260.48C310.67 259.37 311.29 258.14 310.95 257.23C310.71 256.57 310.16 256.75 309.83 257.24C309.54 257.82 309.23 258.35 308.89 258.83C308.24 259.47 307.47 258.85 306.76 258.43C306.06 258.01 305.12 257.97 304.78 259.23C304.4 260.62 305.12 262.46 304.75 263.86C304.24 265.71 302.56 264.66 301.85 266.24C301.06 268.06 302.4 270.79 302.14 273.13C301.43 273.8 300.6 273.71 299.94 272.89C299.29 272.04 298.94 270.58 299.01 269.07C299.09 268.02 299.37 266.94 299.18 265.96C298.97 265.19 298.63 264.59 298.22 264.27C296.23 262.16 294.65 260.48 294.26 260.06C293.89 261.37 294.35 263 294.93 263.98C295.51 264.96 296.24 265.71 296.62 267C297.12 268.86 296.78 271.16 295.85 272.24C295.73 272.39 295.59 272.43 295.45 272.36C295.32 272.22 295.23 271.98 295.2 271.72C294.5 268.27 293.44 264.89 291.77 263.09C290.09 261.29 287.68 261.67 286.58 264.68C286.32 265.4 286.14 266.22 285.92 266.99C284.71 271.02 282.11 272.92 279.69 272.81C279.45 272.84 279.21 272.73 279.01 272.5C278.61 271.98 278.63 270.88 278.7 269.97C278.78 268.68 278.87 267.41 278.95 266.12C278.95 265.33 279.11 264.58 279.39 264C279.84 263.32 280.49 263.75 281.06 263.74C281.95 263.65 282.71 262.52 282.98 260.9C283.22 259.26 282.96 257.51 282.31 256.35C282.06 255.87 281.71 255.27 281.85 254.64C281.95 254.28 282.14 254.04 282.35 253.97C283.38 253.39 284.47 253.25 285.47 252.57C286.49 251.9 287.47 250.51 287.71 248.51C287.78 247.89 287.81 247.15 288.1 246.84C288.24 246.73 288.4 246.67 288.56 246.67C289.69 246.35 290.51 244.43 290.45 242.24C290.94 241.58 291.61 242.07 292.09 242.75C292.55 243.45 292.97 244.36 293.54 244.66C294.59 245.22 295.62 243.4 296.72 243.4C297.18 243.4 297.67 243.71 298.09 243.4C298.54 243.09 298.8 242.25 299.14 241.63C299.48 241 300.07 240.63 300.39 241.3C300.3 240.04 300.21 238.78 300.12 237.52C301.2 238.04 302.35 237.63 303.27 236.41C302.13 235.67 300.99 234.91 299.84 234.17C299.72 234.12 299.6 234 299.51 233.85C299.26 233.33 299.51 232.52 299.71 231.93C300.21 230.53 300.28 228.21 299.48 227.51C298.94 227.02 298.31 227.61 297.79 228.17C296.95 229.06 296.12 229.96 295.27 230.85C295.2 231.76 295.78 232.3 296.14 232.91C296.74 233.93 296.79 235.7 296.26 236.85C295.99 237.43 295.6 237.77 295.2 237.78C295.52 238.62 295.64 239.7 295.51 240.74C294.95 240.81 294.39 240.89 293.82 240.98C293.63 241.05 293.44 240.96 293.28 240.77C293.09 240.46 293.12 239.91 293.08 239.45C292.92 238.34 292.44 237.52 291.83 237.38C291.25 237.25 290.67 237.36 290.11 237.69C289.87 237.85 289.6 237.84 289.36 237.66C289.23 237.48 289.13 237.22 289.08 236.93C288.88 235.71 289.01 234.38 289.46 233.42C289.89 232.48 290.38 231.62 290.89 230.87C292.08 228.88 292.94 226.3 293.4 223.43C294.33 222.68 295.29 221.66 296.22 220.9C296.97 220.24 297.75 219.72 298.57 219.39C299.33 219.16 300.1 219.09 300.86 219.18C301.92 219.22 302.96 219.25 304.01 219.29C304.95 219.22 305.88 219.47 306.77 220.06C307.63 220.75 308.39 222.22 308.45 224.01C308.48 224.41 308.41 224.83 308.25 225.11C308.12 225.24 307.98 225.31 307.85 225.3C306.98 225.34 306.61 225.76 305.74 225.83C306.29 226.95 306.91 228.15 307.71 228.35C309.13 228.7 310.14 225.88 310.79 223.45C310.84 224.74 311.41 225.72 312.09 225.66C312.43 225.55 312.77 225.3 313.07 224.92C315.87 221.98 319.01 220.42 322.2 220.4C322.14 219.43 322.45 218.52 322.95 218.31C323.61 218.06 324.19 219.14 324.49 220.26C324.81 221.38 325 222.68 325.51 223.52C326.01 224.36 326.97 224.32 327.16 223.1C327.35 221.94 326.71 220.94 326.2 220.26C325.67 219.57 325.12 218.3 325.47 217.29C328.15 216.14 330.85 214.99 333.59 214.77C334.06 214.8 334.52 214.64 334.96 214.32C335.4 213.96 335.67 213.07 335.6 212.15C334.38 212.7 333.1 211.77 332.37 209.81C335.18 209.37 338.14 208.97 340.85 210.18C341.08 210.57 342.98 213.66 343.21 214.05C342.77 214.95 342.17 215.8 342.49 216.7C342.72 217.12 343.02 217.33 343.33 217.26C343.9 217.27 344.47 217.3 345.04 217.3C356.83 238.96 364.08 268.15 365.43 299.37C364.48 299.3 363.59 301.64 363.72 303.67C363.87 306.02 364.74 307.91 365.38 309.94C365.48 310.27 365.58 310.61 365.66 310.96C365.64 312.12 365.59 315.58 365.58 316.74C365.25 317.58 364.73 318.06 364.18 318.01Z" id="c6ruvWENGW"></path><path d="M265.55 414.74C265.55 426.94 270.71 436.84 277.06 436.84C283.41 436.84 288.56 426.94 288.56 414.74C288.56 402.52 283.41 392.62 277.06 392.62C270.71 392.62 265.55 402.52 265.55 414.74Z" id="b5D9I6rvHE"></path><path d="M265.55 414.74C265.55 426.94 270.71 436.84 277.06 436.84C283.41 436.84 288.56 426.94 288.56 414.74C288.56 402.52 283.41 392.62 277.06 392.62C270.71 392.62 265.55 402.52 265.55 414.74Z" id="dl2jnD5UH"></path><path d="M275.58 452.14C275.58 452.14 277.45 432.59 278.25 431.56C279.06 430.53 271.56 425.91 271.56 425.91C270.6 429.2 267.82 441.85 266.74 442.37C268.51 444.33 273.81 450.19 275.58 452.14Z" id="d1xPluGksp"></path><path d="M275.58 452.14C275.58 452.14 277.45 432.59 278.25 431.56C279.06 430.53 271.56 425.91 271.56 425.91C270.6 429.2 267.82 441.85 266.74 442.37C268.51 444.33 273.81 450.19 275.58 452.14Z" id="a1j8zj5jED"></path><path d="M249.88 599.8L262.73 550.92L249.35 556.58L249.35 556.58L242.39 594.14L249.88 599.8Z" id="a15nDEl2zq"></path><path d="M249.88 599.8L262.73 550.92L249.35 556.58L249.35 556.58L242.39 594.14L249.88 599.8Z" id="c5t90E4ZC4"></path><path d="M294.86 586.93C294.86 586.93 287.89 554.52 285.76 552.98C283.61 551.44 273.71 557.62 273.71 557.62C276.65 565.22 287.63 595.16 288.43 595.68C289.23 596.2 293.57 588.68 294.86 586.93Z" id="bzipJWvca"></path><path d="M294.86 586.93C294.86 586.93 287.89 554.52 285.76 552.98C283.61 551.44 273.71 557.62 273.71 557.62C276.65 565.22 287.63 595.16 288.43 595.68C289.23 596.2 293.57 588.68 294.86 586.93Z" id="a2a3lWPOaS"></path><path d="M230.34 646.09C230.34 646.09 227.67 654.84 227.67 655.36C227.67 655.36 225.79 656.38 225.79 657.94C225.79 657.94 224.19 671.82 224.19 671.82C224.19 671.82 227.13 684.17 229 680.57C230.88 676.96 231.68 669.76 231.68 669.76C231.95 668.42 234.09 657.73 234.36 656.38C234.36 656.38 234.09 649.19 235.96 648.15C235.96 648.15 238.9 634.26 238.9 634.26C238.9 634.26 241.85 628.61 242.39 627.07C242.39 627.07 252.29 598.26 251.49 597.74C250.69 597.22 241.31 587.45 241.31 587.45C239.13 598.45 231.44 636.99 230.34 642.49C230.34 643.21 231.15 645.59 230.34 646.09Z" id="e1hmYtqNSu"></path><path d="M230.34 646.09C230.34 646.09 227.67 654.84 227.67 655.36C227.67 655.36 225.79 656.38 225.79 657.94C225.79 657.94 224.19 671.82 224.19 671.82C224.19 671.82 227.13 684.17 229 680.57C230.88 676.96 231.68 669.76 231.68 669.76C231.95 668.42 234.09 657.73 234.36 656.38C234.36 656.38 234.09 649.19 235.96 648.15C235.96 648.15 238.9 634.26 238.9 634.26C238.9 634.26 241.85 628.61 242.39 627.07C242.39 627.07 252.29 598.26 251.49 597.74C250.69 597.22 241.31 587.45 241.31 587.45C239.13 598.45 231.44 636.99 230.34 642.49C230.34 643.21 231.15 645.59 230.34 646.09Z" id="c3ejPtV94P"></path><path d="M294.86 584.37C294.86 584.37 308.78 633.24 308.78 634.26C308.78 634.26 308.24 638.38 308.78 639.41C308.78 639.41 313.86 656.9 316.8 658.44C316.8 658.44 320.29 666.17 317.88 667.19C317.88 667.19 312.25 670.79 311.45 667.19C310.98 665.07 310.45 663.02 309.84 661.01C309.84 661.01 307.17 662.55 306.9 661.53C306.59 660.02 306.33 658.47 306.09 656.9C306.09 656.9 303.96 649.7 303.96 647.13C303.96 647.13 302.62 644.03 302.62 644.03C302.62 644.03 299.67 630.66 297.8 628.61C297.8 628.61 294.32 616.26 294.32 616.26C293.31 613.37 290.82 606.18 286.82 594.66C291.64 588.48 294.32 585.05 294.86 584.37Z" id="a2EEILyedM"></path><path d="M294.86 584.37C294.86 584.37 308.78 633.24 308.78 634.26C308.78 634.26 308.24 638.38 308.78 639.41C308.78 639.41 313.86 656.9 316.8 658.44C316.8 658.44 320.29 666.17 317.88 667.19C317.88 667.19 312.25 670.79 311.45 667.19C310.98 665.07 310.45 663.02 309.84 661.01C309.84 661.01 307.17 662.55 306.9 661.53C306.59 660.02 306.33 658.47 306.09 656.9C306.09 656.9 303.96 649.7 303.96 647.13C303.96 647.13 302.62 644.03 302.62 644.03C302.62 644.03 299.67 630.66 297.8 628.61C297.8 628.61 294.32 616.26 294.32 616.26C293.31 613.37 290.82 606.18 286.82 594.66C291.64 588.48 294.32 585.05 294.86 584.37Z" id="a4z1LbF45"></path><path d="M269.43 422.81C269.43 431.06 272.89 437.74 277.19 437.74C281.48 437.74 284.95 431.06 284.95 422.81C284.95 414.58 281.48 407.91 277.19 407.91C272.89 407.91 269.43 414.58 269.43 422.81Z" id="b1oxeqZ0zk"></path><path d="M269.43 422.81C269.43 431.06 272.89 437.74 277.19 437.74C281.48 437.74 284.95 431.06 284.95 422.81C284.95 414.58 281.48 407.91 277.19 407.91C272.89 407.91 269.43 414.58 269.43 422.81Z" id="a52CSsU17"></path><path d="M291.65 569.77C291.65 569.77 280.13 524.69 279.6 524.17C279.06 523.65 254.17 513.36 254.17 513.36C252.19 525.09 242.68 572.02 244.28 572.02C253.76 571.57 290.32 573.88 291.65 569.77Z" id="aTBSHxaO"></path><path d="M291.65 569.77C291.65 569.77 280.13 524.69 279.6 524.17C279.06 523.65 254.17 513.36 254.17 513.36C252.19 525.09 242.68 572.02 244.28 572.02C253.76 571.57 290.32 573.88 291.65 569.77Z" id="asg3eQtpi"></path><path d="M234.62 367.25C234.62 367.25 236.61 342.43 233.94 347.06C233.94 347.06 230.41 370.39 230.41 370.39C231.03 372.21 234.13 381.28 239.71 397.62C239.9 397.17 240.89 394.94 242.66 390.92C237.66 376.2 234.98 368.31 234.62 367.25Z" id="a1UgSPrNpN"></path><path d="M234.62 367.25C234.62 367.25 236.61 342.43 233.94 347.06C233.94 347.06 230.41 370.39 230.41 370.39C231.03 372.21 234.13 381.28 239.71 397.62C239.9 397.17 240.89 394.94 242.66 390.92C237.66 376.2 234.98 368.31 234.62 367.25Z" id="a2g1Axsp7l"></path><path d="M322.69 433.1C322.69 433.1 331.26 415.62 331.8 421.27C331.8 421.27 324.83 439.28 324.83 439.28C324.18 439.42 320.87 440.1 314.93 441.34C314.96 440.86 315.14 438.46 315.47 434.14C319.96 433.5 322.37 433.15 322.69 433.1Z" id="e1VUUyhQz9"></path><path d="M322.69 433.1C322.69 433.1 331.26 415.62 331.8 421.27C331.8 421.27 324.83 439.28 324.83 439.28C324.18 439.42 320.87 440.1 314.93 441.34C314.96 440.86 315.14 438.46 315.47 434.14C319.96 433.5 322.37 433.15 322.69 433.1Z" id="fjX0WZMgF"></path><path d="M256.04 423.85C256.31 422.3 255.51 421.27 255.51 421.27C255.51 421.27 254.7 419.22 254.7 418.7C254.7 418.18 253.63 417.68 253.63 417.68C252.96 416.18 247.61 404.25 246.94 402.75C246.94 402.75 243.19 388.35 242.39 388.87C242.39 388.87 237.3 392.46 237.84 394.52C237.84 394.52 253.36 440.82 253.36 440.82C253.36 440.82 254.17 450.6 255.51 450.6C256.84 450.6 262.73 439.28 262.73 439.28C262.73 438.26 262.73 434.64 262.73 434.14C261.39 432.08 255.77 425.39 256.04 423.85Z" id="alWPq7OT"></path><path d="M256.04 423.85C256.31 422.3 255.51 421.27 255.51 421.27C255.51 421.27 254.7 419.22 254.7 418.7C254.7 418.18 253.63 417.68 253.63 417.68C252.96 416.18 247.61 404.25 246.94 402.75C246.94 402.75 243.19 388.35 242.39 388.87C242.39 388.87 237.3 392.46 237.84 394.52C237.84 394.52 253.36 440.82 253.36 440.82C253.36 440.82 254.17 450.6 255.51 450.6C256.84 450.6 262.73 439.28 262.73 439.28C262.73 438.26 262.73 434.64 262.73 434.14C261.39 432.08 255.77 425.39 256.04 423.85Z" id="a1gXhe89Dz"></path><path d="M286.82 445.45C286.82 445.45 290.84 445.45 290.84 445.45C290.84 445.45 301.01 440.82 301.81 439.28C301.81 439.28 316 431.05 316.54 434.14C316.54 434.14 318.41 443.39 317.07 444.43C317.07 444.43 279.6 462.95 279.6 462.95C279.81 459.45 280.45 448.95 280.66 445.45C281.9 445.45 286.55 444.93 286.82 445.45Z" id="f3iDC7wzz0"></path><path d="M286.82 445.45C286.82 445.45 290.84 445.45 290.84 445.45C290.84 445.45 301.01 440.82 301.81 439.28C301.81 439.28 316 431.05 316.54 434.14C316.54 434.14 318.41 443.39 317.07 444.43C317.07 444.43 279.6 462.95 279.6 462.95C279.81 459.45 280.45 448.95 280.66 445.45C281.9 445.45 286.55 444.93 286.82 445.45Z" id="aNqJpQjUX"></path><path d="M268.28 391.46C268.28 396.51 270.4 400.61 273.03 400.61C275.66 400.61 277.8 396.51 277.8 391.46C277.8 386.4 275.66 382.31 273.03 382.31C270.4 382.31 268.28 386.4 268.28 391.46Z" id="b206xj7c75"></path><path d="M268.28 391.46C268.28 396.51 270.4 400.61 273.03 400.61C275.66 400.61 277.8 396.51 277.8 391.46C277.8 386.4 275.66 382.31 273.03 382.31C270.4 382.31 268.28 386.4 268.28 391.46Z" id="g5esTlLZUg"></path><path d="M270.45 377.36C267.82 377.36 265.7 381.45 265.7 386.5C265.7 391.55 267.82 395.66 270.45 395.66C270.62 395.66 270.78 395.64 270.95 395.6C268.53 395.11 266.68 391.19 266.68 386.5C266.69 381.82 268.53 377.89 270.95 377.4C270.78 377.37 270.62 377.36 270.45 377.36Z" id="ejIZDApOy"></path><path d="M270.45 377.36C267.82 377.36 265.7 381.45 265.7 386.5C265.7 391.55 267.82 395.66 270.45 395.66C270.62 395.66 270.78 395.64 270.95 395.6C268.53 395.11 266.68 391.19 266.68 386.5C266.69 381.82 268.53 377.89 270.95 377.4C270.78 377.37 270.62 377.36 270.45 377.36Z" id="aQPf1HAS"></path><path d="M278.39 419.19C274.01 419.19 270.46 415.1 270.46 410.05C270.46 404.99 274.01 400.89 278.39 400.89C282.78 400.89 286.33 404.99 286.33 410.05C286.33 415.1 282.78 419.19 278.39 419.19Z" id="b10spS5YEO"></path><path d="M278.39 419.19C274.01 419.19 270.46 415.1 270.46 410.05C270.46 404.99 274.01 400.89 278.39 400.89C282.78 400.89 286.33 404.99 286.33 410.05C286.33 415.1 282.78 419.19 278.39 419.19Z" id="kWf9PExUW"></path><path d="M262.06 433.37C262.06 433.37 254.57 448.8 254.57 448.8C254.57 448.8 255.86 451.67 254.57 466.3C254.08 471.77 253.12 495.23 253.12 498.31C253.12 501.41 247.88 509 252.7 515.67C257.52 522.36 280.54 529.57 280.8 525.46C281.06 521.34 278.13 510.53 279.46 505.4C280.8 500.25 280.8 481.21 280.8 481.21C280.91 479.88 281.44 473.18 282.41 461.14C283.21 451.58 283.65 446.26 283.75 445.2C283.75 445.2 277.45 441.85 276.92 441.85C276.38 441.85 273.97 449.05 269.29 433.87C268.7 434.7 266.88 437.49 266.34 437.99C265.49 437.07 262.6 433.37 262.06 433.37Z" id="aQfpLfJMH"></path><path d="M262.06 433.37C262.06 433.37 254.57 448.8 254.57 448.8C254.57 448.8 255.86 451.67 254.57 466.3C254.08 471.77 253.12 495.23 253.12 498.31C253.12 501.41 247.88 509 252.7 515.67C257.52 522.36 280.54 529.57 280.8 525.46C281.06 521.34 278.13 510.53 279.46 505.4C280.8 500.25 280.8 481.21 280.8 481.21C280.91 479.88 281.44 473.18 282.41 461.14C283.21 451.58 283.65 446.26 283.75 445.2C283.75 445.2 277.45 441.85 276.92 441.85C276.38 441.85 273.97 449.05 269.29 433.87C268.7 434.7 266.88 437.49 266.34 437.99C265.49 437.07 262.6 433.37 262.06 433.37Z" id="boFbwmu8O"></path><path d="M625.51 883.52C625.51 884.27 625.51 884.68 625.51 884.77C625.51 884.77 625.51 884.77 625.51 884.77C477.64 884.77 395.49 884.77 379.06 884.77C379.06 884.77 379.06 884.77 379.06 884.77C379.06 884.02 379.06 883.61 379.06 883.52C379.06 883.52 379.06 883.52 379.06 883.52C526.93 883.52 609.08 883.52 625.51 883.52C625.51 883.52 625.51 883.52 625.51 883.52Z" id="ebgzLlT82"></path><path d="M625.51 883.52C625.51 884.27 625.51 884.68 625.51 884.77C625.51 884.77 625.51 884.77 625.51 884.77C477.64 884.77 395.49 884.77 379.06 884.77C379.06 884.77 379.06 884.77 379.06 884.77C379.06 884.02 379.06 883.61 379.06 883.52C379.06 883.52 379.06 883.52 379.06 883.52C526.93 883.52 609.08 883.52 625.51 883.52C625.51 883.52 625.51 883.52 625.51 883.52Z" id="h2odfh5LzW"></path></defs><g><g><g><use xlink:href="#bRFlAzQue" opacity="1" fill="#e6e6e6" fill-opacity="1"></use><g><use xlink:href="#bRFlAzQue" opacity="1" fill-opacity="0" stroke="#000000" stroke-width="1" stroke-opacity="0"></use></g></g><g><use xlink:href="#a35WwHC505" opacity="1" fill="#000000" fill-opacity="0"></use><g><use xlink:href="#a35WwHC505" opacity="1" fill-opacity="0" stroke="#000000" stroke-width="1" stroke-opacity="0"></use></g></g><g><use xlink:href="#aB88YPCdH" opacity="1" fill="#e6e6e6" fill-opacity="1"></use><g><use xlink:href="#aB88YPCdH" opacity="1" fill-opacity="0" stroke="#000000" stroke-width="1" stroke-opacity="0"></use></g></g><g><use xlink:href="#a1xh5zPErH" opacity="1" fill="#000000" fill-opacity="0"></use><g><use xlink:href="#a1xh5zPErH" opacity="1" fill-opacity="0" stroke="#000000" stroke-width="1" stroke-opacity="0"></use></g></g><g><use xlink:href="#cl9QLJfsw" opacity="1" fill="#e6e6e6" fill-opacity="1"></use><g><use xlink:href="#cl9QLJfsw" opacity="1" fill-opacity="0" stroke="#000000" stroke-width="1" stroke-opacity="0"></use></g></g><g><use xlink:href="#a2ttDV5xo" opacity="1" fill="#000000" fill-opacity="0"></use><g><use xlink:href="#a2ttDV5xo" opacity="1" fill-opacity="0" stroke="#000000" stroke-width="1" stroke-opacity="0"></use></g></g><g><use xlink:href="#aoJaNWgM3" opacity="1" fill="#63ff72" fill-opacity="1"></use><g><use xlink:href="#aoJaNWgM3" opacity="1" fill-opacity="0" stroke="#000000" stroke-width="1" stroke-opacity="0"></use></g></g><g><use xlink:href="#g52PJ4wzsk" opacity="1" fill="#000000" fill-opacity="0"></use><g><use xlink:href="#g52PJ4wzsk" opacity="1" fill-opacity="0" stroke="#000000" stroke-width="1" stroke-opacity="0"></use></g></g><g><use xlink:href="#b2VPOSsGM9" opacity="1" fill="#3f3d56" fill-opacity="1"></use><g><use xlink:href="#b2VPOSsGM9" opacity="1" fill-opacity="0" stroke="#000000" stroke-width="1" stroke-opacity="0"></use></g></g><g><use xlink:href="#by0HmNNYr" opacity="1" fill="#000000" fill-opacity="0"></use><g><use xlink:href="#by0HmNNYr" opacity="1" fill-opacity="0" stroke="#000000" stroke-width="1" stroke-opacity="0"></use></g></g><g><use xlink:href="#gzvgARMCQ" opacity="1" fill="#3f3d56" fill-opacity="1"></use><g><use xlink:href="#gzvgARMCQ" opacity="1" fill-opacity="0" stroke="#000000" stroke-width="1" stroke-opacity="0"></use></g></g><g><use xlink:href="#c6ruvWENGW" opacity="1" fill="#000000" fill-opacity="0"></use><g><use xlink:href="#c6ruvWENGW" opacity="1" fill-opacity="0" stroke="#000000" stroke-width="1" stroke-opacity="0"></use></g></g><g><use xlink:href="#b5D9I6rvHE" opacity="1" fill="#2f2e41" fill-opacity="1"></use><g><use xlink:href="#b5D9I6rvHE" opacity="1" fill-opacity="0" stroke="#000000" stroke-width="1" stroke-opacity="0"></use></g></g><g><use xlink:href="#dl2jnD5UH" opacity="1" fill="#000000" fill-opacity="0"></use><g><use xlink:href="#dl2jnD5UH" opacity="1" fill-opacity="0" stroke="#000000" stroke-width="1" stroke-opacity="0"></use></g></g><g><use xlink:href="#d1xPluGksp" opacity="1" fill="#ffb9b9" fill-opacity="1"></use><g><use xlink:href="#d1xPluGksp" opacity="1" fill-opacity="0" stroke="#000000" stroke-width="1" stroke-opacity="0"></use></g></g><g><use xlink:href="#a1j8zj5jED" opacity="1" fill="#000000" fill-opacity="0"></use><g><use xlink:href="#a1j8zj5jED" opacity="1" fill-opacity="0" stroke="#000000" stroke-width="1" stroke-opacity="0"></use></g></g><g><use xlink:href="#a15nDEl2zq" opacity="1" fill="#ffb9b9" fill-opacity="1"></use><g><use xlink:href="#a15nDEl2zq" opacity="1" fill-opacity="0" stroke="#000000" stroke-width="1" stroke-opacity="0"></use></g></g><g><use xlink:href="#c5t90E4ZC4" opacity="1" fill="#000000" fill-opacity="0"></use><g><use xlink:href="#c5t90E4ZC4" opacity="1" fill-opacity="0" stroke="#000000" stroke-width="1" stroke-opacity="0"></use></g></g><g><use xlink:href="#bzipJWvca" opacity="1" fill="#ffb9b9" fill-opacity="1"></use><g><use xlink:href="#bzipJWvca" opacity="1" fill-opacity="0" stroke="#000000" stroke-width="1" stroke-opacity="0"></use></g></g><g><use xlink:href="#a2a3lWPOaS" opacity="1" fill="#000000" fill-opacity="0"></use><g><use xlink:href="#a2a3lWPOaS" opacity="1" fill-opacity="0" stroke="#000000" stroke-width="1" stroke-opacity="0"></use></g></g><g><use xlink:href="#e1hmYtqNSu" opacity="1" fill="#e52a2a" fill-opacity="1"></use><g><use xlink:href="#e1hmYtqNSu" opacity="1" fill-opacity="0" stroke="#000000" stroke-width="1" stroke-opacity="0"></use></g></g><g><use xlink:href="#c3ejPtV94P" opacity="1" fill="#000000" fill-opacity="0"></use><g><use xlink:href="#c3ejPtV94P" opacity="1" fill-opacity="0" stroke="#000000" stroke-width="1" stroke-opacity="0"></use></g></g><g><use xlink:href="#a2EEILyedM" opacity="1" fill="#df251c" fill-opacity="1"></use><g><use xlink:href="#a2EEILyedM" opacity="1" fill-opacity="0" stroke="#000000" stroke-width="1" stroke-opacity="0"></use></g></g><g><use xlink:href="#a4z1LbF45" opacity="1" fill="#000000" fill-opacity="0"></use><g><use xlink:href="#a4z1LbF45" opacity="1" fill-opacity="0" stroke="#000000" stroke-width="1" stroke-opacity="0"></use></g></g><g><use xlink:href="#b1oxeqZ0zk" opacity="1" fill="#ffb9b9" fill-opacity="1"></use><g><use xlink:href="#b1oxeqZ0zk" opacity="1" fill-opacity="0" stroke="#000000" stroke-width="1" stroke-opacity="0"></use></g></g><g><use xlink:href="#a52CSsU17" opacity="1" fill="#000000" fill-opacity="0"></use><g><use xlink:href="#a52CSsU17" opacity="1" fill-opacity="0" stroke="#000000" stroke-width="1" stroke-opacity="0"></use></g></g><g><use xlink:href="#aTBSHxaO" opacity="1" fill="#2f2e41" fill-opacity="1"></use><g><use xlink:href="#aTBSHxaO" opacity="1" fill-opacity="0" stroke="#000000" stroke-width="1" stroke-opacity="0"></use></g></g><g><use xlink:href="#asg3eQtpi" opacity="1" fill="#000000" fill-opacity="0"></use><g><use xlink:href="#asg3eQtpi" opacity="1" fill-opacity="0" stroke="#000000" stroke-width="1" stroke-opacity="0"></use></g></g><g><use xlink:href="#a1UgSPrNpN" opacity="1" fill="#ffb9b9" fill-opacity="1"></use><g><use xlink:href="#a1UgSPrNpN" opacity="1" fill-opacity="0" stroke="#000000" stroke-width="1" stroke-opacity="0"></use></g></g><g><use xlink:href="#a2g1Axsp7l" opacity="1" fill="#000000" fill-opacity="0"></use><g><use xlink:href="#a2g1Axsp7l" opacity="1" fill-opacity="0" stroke="#000000" stroke-width="1" stroke-opacity="0"></use></g></g><g><use xlink:href="#e1VUUyhQz9" opacity="1" fill="#ffb9b9" fill-opacity="1"></use><g><use xlink:href="#e1VUUyhQz9" opacity="1" fill-opacity="0" stroke="#000000" stroke-width="1" stroke-opacity="0"></use></g></g><g><use xlink:href="#fjX0WZMgF" opacity="1" fill="#000000" fill-opacity="0"></use><g><use xlink:href="#fjX0WZMgF" opacity="1" fill-opacity="0" stroke="#000000" stroke-width="1" stroke-opacity="0"></use></g></g><g><use xlink:href="#alWPq7OT" opacity="1" fill="#3f3d56" fill-opacity="1"></use><g><use xlink:href="#alWPq7OT" opacity="1" fill-opacity="0" stroke="#000000" stroke-width="1" stroke-opacity="0"></use></g></g><g><use xlink:href="#a1gXhe89Dz" opacity="1" fill="#000000" fill-opacity="0"></use><g><use xlink:href="#a1gXhe89Dz" opacity="1" fill-opacity="0" stroke="#000000" stroke-width="1" stroke-opacity="0"></use></g></g><g><use xlink:href="#f3iDC7wzz0" opacity="1" fill="#3f3d56" fill-opacity="1"></use><g><use xlink:href="#f3iDC7wzz0" opacity="1" fill-opacity="0" stroke="#000000" stroke-width="1" stroke-opacity="0"></use></g></g><g><use xlink:href="#aNqJpQjUX" opacity="1" fill="#000000" fill-opacity="0"></use><g><use xlink:href="#aNqJpQjUX" opacity="1" fill-opacity="0" stroke="#000000" stroke-width="1" stroke-opacity="0"></use></g></g><g><use xlink:href="#b206xj7c75" opacity="1" fill="#2f2e41" fill-opacity="1"></use><g><use xlink:href="#b206xj7c75" opacity="1" fill-opacity="0" stroke="#000000" stroke-width="1" stroke-opacity="0"></use></g></g><g><use xlink:href="#g5esTlLZUg" opacity="1" fill="#000000" fill-opacity="0"></use><g><use xlink:href="#g5esTlLZUg" opacity="1" fill-opacity="0" stroke="#000000" stroke-width="1" stroke-opacity="0"></use></g></g><g><use xlink:href="#ejIZDApOy" opacity="1" fill="#2f2e41" fill-opacity="1"></use><g><use xlink:href="#ejIZDApOy" opacity="1" fill-opacity="0" stroke="#000000" stroke-width="1" stroke-opacity="0"></use></g></g><g><use xlink:href="#aQPf1HAS" opacity="1" fill="#000000" fill-opacity="0"></use><g><use xlink:href="#aQPf1HAS" opacity="1" fill-opacity="0" stroke="#000000" stroke-width="1" stroke-opacity="0"></use></g></g><g><use xlink:href="#b10spS5YEO" opacity="1" fill="#2f2e41" fill-opacity="1"></use><g><use xlink:href="#b10spS5YEO" opacity="1" fill-opacity="0" stroke="#000000" stroke-width="1" stroke-opacity="0"></use></g></g><g><use xlink:href="#kWf9PExUW" opacity="1" fill="#000000" fill-opacity="0"></use><g><use xlink:href="#kWf9PExUW" opacity="1" fill-opacity="0" stroke="#000000" stroke-width="1" stroke-opacity="0"></use></g></g><g><use xlink:href="#aQfpLfJMH" opacity="1" fill="#e81010" fill-opacity="1"></use><g><use xlink:href="#aQfpLfJMH" opacity="1" fill-opacity="0" stroke="#000000" stroke-width="1" stroke-opacity="0"></use></g></g><g><use xlink:href="#boFbwmu8O" opacity="1" fill="#000000" fill-opacity="0"></use><g><use xlink:href="#boFbwmu8O" opacity="1" fill-opacity="0" stroke="#000000" stroke-width="1" stroke-opacity="0"></use></g></g><g><use xlink:href="#ebgzLlT82" opacity="1" fill="#3f3d56" fill-opacity="1"></use><g><use xlink:href="#ebgzLlT82" opacity="1" fill-opacity="0" stroke="#000000" stroke-width="1" stroke-opacity="0"></use></g></g><g><use xlink:href="#h2odfh5LzW" opacity="1" fill="#000000" fill-opacity="0"></use><g><use xlink:href="#h2odfh5LzW" opacity="1" fill-opacity="0" stroke="#000000" stroke-width="1" stroke-opacity="0"></use></g></g></g></g></svg>