<?xml version="1.0" encoding="UTF-8" standalone="no"?>
<!DOCTYPE svg PUBLIC "-//W3C//DTD SVG 1.1//EN" "http://www.w3.org/Graphics/SVG/1.1/DTD/svg11.dtd">
<svg version="1.1" xmlns="http://www.w3.org/2000/svg" xmlns:xlink="http://www.w3.org/1999/xlink" preserveAspectRatio="xMidYMid meet" viewBox="0 0 640 640" width="728" height="728"><defs><path d="M495.6 622.88C495.6 625.11 437.85 626.93 366.6 626.93C295.36 626.93 237.61 625.11 237.61 622.88C237.61 620.64 295.36 618.83 366.6 618.83C437.85 618.83 495.6 620.64 495.6 622.88Z" id="e1rbGpxrPV"></path><path d="M495.6 622.88C495.6 625.11 437.85 626.93 366.6 626.93C295.36 626.93 237.61 625.11 237.61 622.88C237.61 620.64 295.36 618.83 366.6 618.83C437.85 618.83 495.6 620.64 495.6 622.88Z" id="b1gKCwRozg"></path><path d="M524.67 601.37C524.67 604.11 453.87 606.33 366.53 606.33C279.2 606.33 208.4 604.11 208.4 601.37C208.4 598.63 279.2 596.4 366.53 596.4C453.87 596.4 524.67 598.63 524.67 601.37Z" id="b5EImMPjt7"></path><path d="M478.97 446.85L478.22 468.16C499.85 477.9 511.86 483.32 514.26 484.4C514.26 484.4 512.39 457.51 513.51 454.97C508.91 453.89 497.39 451.18 478.97 446.85Z" id="f3TbybBksh"></path><path d="M417.02 559.49L432.79 559.49L432.79 541.73L420.4 541.73L420.4 541.73L417.02 559.49Z" id="gUufivNr5"></path><path d="M509.38 549.85L513.14 537.11L506.75 530.32L502.25 546.46L502.25 546.46L509.38 549.85Z" id="c5YykdFYi"></path><path d="M514.89 524.34C514.89 524.34 525.53 522.45 525.53 534.63C525.53 534.63 527.03 576.74 512.01 573.19C512.01 573.19 505.25 574.21 507.88 563.55C507.88 563.55 510.56 559.22 509.59 556.56C508.63 553.91 503 551.88 503.75 550.36C504.5 548.84 512.76 536.66 512.76 536.66C513.19 534.2 514.46 526.81 514.89 524.34Z" id="c69TOiPqCm"></path><path d="M478.22 464.61C476.87 471.92 476.12 475.98 475.97 476.79C475.97 476.79 420.78 433.66 417.4 463.09C417.4 463.09 414.39 486.94 418.9 518.39C418.94 520.93 419.24 541.23 419.27 543.76C419.27 543.76 428.66 546.81 433.17 544.27C433.2 541.53 433.5 519.61 433.54 516.87C433.54 516.87 437.3 499.11 435.42 485.41C435.42 485.41 463.58 515.35 476.34 518.9C476.34 518.9 431.66 565.58 436.92 580.3C442.18 595.01 448.56 597.55 456.82 595.01C462.51 593.26 487.99 565.49 503.29 548.39C513.92 536.62 519.79 518.74 519.12 500.19C518.84 493.46 517.69 486.94 515.01 481.86C510.11 479.56 497.84 473.81 478.22 464.61Z" id="afJGlRsly"></path><path d="M419.65 552.9C419.65 552.9 419.27 546.81 417.02 549.34C417.02 549.34 406.88 561.52 406.88 561.52C406.88 561.52 378.35 565.76 395.62 575.4C403.51 577 411.57 575.59 418.9 571.34C418.9 571.34 438.09 577.99 437.69 571.53C437.69 571.53 432.79 554.29 432.79 554.29C432.79 554.29 427.53 559.49 421.53 552.39C421.15 552.49 420.02 552.8 419.65 552.9Z" id="atZM1F3fT"></path><path d="M493.99 350.95C486.32 350.95 480.1 359.36 480.1 369.73C480.1 380.1 486.32 388.5 493.99 388.5C501.66 388.5 507.88 380.1 507.88 369.73C507.88 359.36 501.66 350.95 493.99 350.95Z" id="a1d6pLkK2z"></path><path d="M505.25 370.74C505.25 370.74 507.5 385.96 511.63 389.52C510.11 391.95 502.47 404.13 488.73 426.05L480.1 414.89C483.93 405.75 486.05 400.68 486.48 399.66C486.48 399.66 493.61 394.08 491.36 386.47C494.14 383.33 502.47 373.89 505.25 370.74Z" id="avCIrtoJM"></path><path d="M531.91 410.32C531.91 410.32 530.03 451.93 530.03 451.93C529.24 459.84 522.94 523.16 522.15 531.08C522.15 531.08 521.77 564.57 512.01 558.99C512.01 558.99 514.64 528.03 514.64 528.03C514.98 523.06 517.68 483.28 518.02 478.31C518.02 478.31 519.52 436.2 516.51 431.12C515.31 430.61 505.7 426.56 504.5 426.05C504.5 426.05 507.13 392.56 513.51 391.04C517.19 394.89 530.03 395.6 531.91 410.32Z" id="j2V0ze2Cfu"></path><path d="M486.48 399.66C486.48 399.66 475.22 399.16 468.08 411.33C468.08 411.33 443.68 432.64 443.68 432.64C439.36 434.93 404.82 453.19 400.5 455.48C400.5 455.48 392.62 436.7 387.74 443.3C387.74 443.3 396.75 466.64 403.13 464.61C403.13 464.61 448.18 446.85 448.18 446.85C450.24 445.6 460.5 439.34 478.97 428.08C482.97 412.92 485.48 403.45 486.48 399.66Z" id="d11wwoFSpp"></path><path d="M511.05 388.31C511.05 388.31 496.62 414.38 490.23 413.87C490.23 413.87 488.15 397.95 488.15 397.95C487.7 398.1 484.09 399.32 483.64 399.47C483.64 399.47 477.47 415.39 476.72 416.41C476.72 416.41 467.71 436.2 477.84 440.76C477.88 441.83 478.18 450.35 478.22 451.42C478.22 451.42 503.37 449.9 514.26 457.51C514.49 454.87 516.29 433.76 516.51 431.12C516.51 431.12 502.25 421.48 510.13 402.71C510.13 402.71 512.93 392.87 515.93 391.86C514.96 391.15 512.03 389.02 511.05 388.31Z" id="d30rI6MFZ"></path><path d="M457.38 584.61C457.38 584.61 515.2 538.44 514.83 527.78C503.34 539.15 463.13 578.93 457.38 584.61Z" id="a1vE4yZdW4"></path><path d="M509.53 368.21C509.53 370.03 509.04 371.5 508.44 371.5C507.84 371.5 507.36 370.03 507.36 368.21C507.36 366.38 507.84 364.91 508.44 364.91C509.04 364.91 509.53 366.38 509.53 368.21Z" id="c1prmfWvk"></path><path d="M383.3 294.77L383.2 375.78L378.27 356.97L378.27 356.92C374.44 465.12 372.31 525.23 371.89 537.26C378.16 561.17 381.52 573.95 381.55 574C381.59 574.04 385.16 574.33 389.47 574.62C402.53 575.49 418.73 577.37 431.04 579.45C433.89 579.93 436.32 580.17 436.5 579.98C436.68 579.78 436.71 497.33 436.68 396.7C436.67 384.51 436.63 323.53 436.57 213.77L383.41 213.77L383.3 294.77Z" id="aAs624a7k"></path><path d="M478.67 359.76C478.67 359.76 474.78 324.22 502.58 335.18C502.58 335.18 522.25 329.78 529.2 362.98C529.67 365.3 532.02 376.9 536.25 397.79L533.02 395.52L531.6 399.96L526.45 401.86L524.15 395.98L523.18 403.22C497.79 407.31 483.68 409.58 480.86 410.04C480.86 410.04 499.63 394.37 499.55 367.16C499.31 367.51 498.13 369.26 496.01 372.42C486.76 365.66 480.98 361.45 478.67 359.76Z" id="a27FyRCyON"></path><path d="M287.26 396.65C287.26 497.38 287.33 579.88 287.43 580.02C287.54 580.17 292.14 579.54 297.71 578.72C303.28 577.9 310.95 576.84 314.76 576.41C320.61 575.73 338.17 574.24 340.17 574.19C340.77 574.19 340.81 570.09 340.88 496.61C340.89 491.44 340.92 465.58 340.99 419.03C343.53 428.75 344.95 434.15 345.23 435.23C345.88 437.74 346.09 438.51 346.73 440.97C347.37 422.94 352.48 278.71 353.12 260.68C351.76 255.52 352.48 258.22 350.94 252.34C345.73 232.43 341.31 215.6 341.13 214.83C341.11 214.74 340.99 214.29 340.77 213.48L287.26 213.48C287.26 323.39 287.26 384.45 287.26 396.65Z" id="b2GHjqFL5Z"></path><path d="M340.95 419.17L340.95 419.07C343.5 428.8 344.91 434.2 345.2 435.28C368.78 525.49 381.45 573.9 381.52 574C381.55 574.04 385.12 574.33 389.44 574.62C402.5 575.49 418.7 577.37 431 579.45C433.82 579.93 436.28 580.17 436.43 579.98C432.88 566.36 415.13 498.28 383.2 375.73L383.2 375.78C380.24 364.49 378.6 358.22 378.27 356.97C373.45 338.6 370.24 326.31 350.87 252.34C345.66 232.43 341.24 215.6 341.06 214.83C341.03 214.74 340.92 214.29 340.7 213.48L313.98 213.48L287.26 213.53L340.95 419.17Z" id="c4LTlHDWG3"></path><path d="M478.97 446.85L478.22 468.16C499.85 477.9 511.86 483.32 514.26 484.4C514.26 484.4 512.39 457.51 513.51 454.97C508.91 453.89 497.39 451.18 478.97 446.85Z" id="b5O7VjIPee"></path><path d="M417.02 559.49L432.79 559.49L432.79 541.73L420.4 541.73L420.4 541.73L417.02 559.49Z" id="b4xKo4oahl"></path><path d="M509.38 549.85L513.14 537.11L506.75 530.32L502.25 546.46L502.25 546.46L509.38 549.85Z" id="b1zNPnCSw7"></path><path d="M514.89 524.34C514.89 524.34 525.53 522.45 525.53 534.63C525.53 534.63 527.03 576.74 512.01 573.19C512.01 573.19 505.25 574.21 507.88 563.55C507.88 563.55 510.56 559.22 509.59 556.56C508.63 553.91 503 551.88 503.75 550.36C504.5 548.84 512.76 536.66 512.76 536.66C513.19 534.2 514.46 526.81 514.89 524.34Z" id="bph3HpaWe"></path><path d="M478.22 464.61C476.87 471.92 476.12 475.98 475.97 476.79C475.97 476.79 420.78 433.66 417.4 463.09C417.4 463.09 414.39 486.94 418.9 518.39C418.94 520.93 419.24 541.23 419.27 543.76C419.27 543.76 428.66 546.81 433.17 544.27C433.2 541.53 433.5 519.61 433.54 516.87C433.54 516.87 437.3 499.11 435.42 485.41C435.42 485.41 463.58 515.35 476.34 518.9C476.34 518.9 431.66 565.58 436.92 580.3C442.18 595.01 448.56 597.55 456.82 595.01C462.51 593.26 487.99 565.49 503.29 548.39C513.92 536.62 519.79 518.74 519.12 500.19C518.84 493.46 517.69 486.94 515.01 481.86C510.11 479.56 497.84 473.81 478.22 464.61Z" id="a5OC2Sld7"></path><path d="M419.65 552.9C419.65 552.9 419.27 546.81 417.02 549.34C417.02 549.34 406.88 561.52 406.88 561.52C406.88 561.52 378.35 565.76 395.62 575.4C403.51 577 411.57 575.59 418.9 571.34C418.9 571.34 438.09 577.99 437.69 571.53C437.69 571.53 432.79 554.29 432.79 554.29C432.79 554.29 427.53 559.49 421.53 552.39C421.15 552.49 420.02 552.8 419.65 552.9Z" id="a1k4NpUHKT"></path><path d="M493.99 350.95C486.32 350.95 480.1 359.36 480.1 369.73C480.1 380.1 486.32 388.5 493.99 388.5C501.66 388.5 507.88 380.1 507.88 369.73C507.88 359.36 501.66 350.95 493.99 350.95Z" id="e1MQ2IgREw"></path><path d="M505.25 370.74C505.25 370.74 507.5 385.96 511.63 389.52C510.11 391.95 502.47 404.13 488.73 426.05L480.1 414.89C483.93 405.75 486.05 400.68 486.48 399.66C486.48 399.66 493.61 394.08 491.36 386.47C494.14 383.33 502.47 373.89 505.25 370.74Z" id="bzjdz1vEa"></path><path d="M531.91 410.32C531.91 410.32 530.03 451.93 530.03 451.93C529.24 459.84 522.94 523.16 522.15 531.08C522.15 531.08 521.77 564.57 512.01 558.99C512.01 558.99 514.64 528.03 514.64 528.03C514.98 523.06 517.68 483.28 518.02 478.31C518.02 478.31 519.52 436.2 516.51 431.12C515.31 430.61 505.7 426.56 504.5 426.05C504.5 426.05 507.13 392.56 513.51 391.04C517.19 394.89 530.03 395.6 531.91 410.32Z" id="fYO6O7C"></path><path d="M486.48 399.66C486.48 399.66 475.22 399.16 468.08 411.33C468.08 411.33 443.68 432.64 443.68 432.64C439.36 434.93 404.82 453.19 400.5 455.48C400.5 455.48 392.62 436.7 387.74 443.3C387.74 443.3 396.75 466.64 403.13 464.61C403.13 464.61 448.18 446.85 448.18 446.85C450.24 445.6 460.5 439.34 478.97 428.08C482.97 412.92 485.48 403.45 486.48 399.66Z" id="b3WuELLaOh"></path><path d="M511.05 388.31C511.05 388.31 496.62 414.38 490.23 413.87C490.23 413.87 488.15 397.95 488.15 397.95C487.7 398.1 484.09 399.32 483.64 399.47C483.64 399.47 477.47 415.39 476.72 416.41C476.72 416.41 467.71 436.2 477.84 440.76C477.88 441.83 478.18 450.35 478.22 451.42C478.22 451.42 503.37 449.9 514.26 457.51C514.49 454.87 516.29 433.76 516.51 431.12C516.51 431.12 502.25 421.48 510.13 402.71C510.13 402.71 512.93 392.87 515.93 391.86C514.96 391.15 512.03 389.02 511.05 388.31Z" id="c1ETYW7Xsq"></path><path d="M457.38 584.61C457.38 584.61 515.2 538.44 514.83 527.78C503.34 539.15 463.13 578.93 457.38 584.61Z" id="e4PZd6hBF0"></path><path d="M509.53 368.21C509.53 370.03 509.04 371.5 508.44 371.5C507.84 371.5 507.36 370.03 507.36 368.21C507.36 366.38 507.84 364.91 508.44 364.91C509.04 364.91 509.53 366.38 509.53 368.21Z" id="b4Co5rizGa"></path><path d="M478.67 359.76C478.67 359.76 474.78 324.22 502.58 335.18C502.58 335.18 522.25 329.78 529.2 362.98C529.67 365.3 532.02 376.9 536.25 397.79L533.02 395.52L531.6 399.96L526.45 401.86L524.15 395.98L523.18 403.22C497.79 407.31 483.68 409.58 480.86 410.04C480.86 410.04 499.63 394.37 499.55 367.16C499.31 367.51 498.13 369.26 496.01 372.42C486.76 365.66 480.98 361.45 478.67 359.76Z" id="b1ETrd90et"></path><path d="M383.72 299.34L383.61 380.34L378.69 361.54L378.69 361.49C374.86 469.69 372.73 529.8 372.3 541.82C378.58 565.74 381.94 578.52 381.97 578.56C382.01 578.61 385.58 578.9 389.89 579.19C402.95 580.06 419.15 581.94 431.46 584.01C434.31 584.49 436.74 584.74 436.92 584.54C437.1 584.35 437.13 501.9 437.1 401.27C437.09 389.07 437.05 328.09 436.99 218.33L383.83 218.33L383.72 299.34Z" id="agiNSRI5q"></path><path d="M287.26 396.65C287.26 497.38 287.33 579.88 287.43 580.02C287.54 580.17 292.14 579.54 297.71 578.72C303.28 577.9 310.95 576.84 314.76 576.41C320.61 575.73 338.17 574.24 340.17 574.19C340.77 574.19 340.81 570.09 340.88 496.61C340.89 491.44 340.92 465.58 340.99 419.03C343.53 428.75 344.95 434.15 345.23 435.23C345.88 437.74 346.09 438.51 346.73 440.97C347.37 422.94 352.48 278.71 353.12 260.68C351.76 255.52 352.48 258.22 350.94 252.34C345.73 232.43 341.31 215.6 341.13 214.83C341.11 214.74 340.99 214.29 340.77 213.48L287.26 213.48C287.26 323.39 287.26 384.45 287.26 396.65Z" id="b2Bi9qLaOi"></path><path d="M345.64 415.17L345.64 415.07C348.19 424.79 349.6 430.19 349.89 431.27C373.47 521.49 386.14 569.9 386.21 569.99C386.24 570.04 389.81 570.33 394.13 570.62C407.19 571.49 423.39 573.37 435.69 575.44C438.51 575.92 440.97 576.17 441.12 575.97C437.57 562.36 419.82 494.27 387.89 371.72L387.89 371.77C384.93 360.49 383.29 354.22 382.96 352.97C378.14 334.6 374.93 322.3 355.56 248.34C350.35 228.42 345.93 211.6 345.75 210.82C345.72 210.73 345.61 210.28 345.39 209.47L318.67 209.47L291.95 209.52L345.64 415.17Z" id="b7eNh7sb9L"></path><path d="M139.81 285.88C139.81 283.6 142.56 281.76 145.96 281.76C149.36 281.76 152.12 283.6 152.12 285.88C152.11 288.16 149.36 290.01 145.96 290.01C142.56 290.01 139.81 288.16 139.81 285.88ZM140.83 285.88C140.83 287.78 143.13 289.33 145.96 289.33C148.79 289.33 151.09 287.78 151.09 285.88C151.09 285.88 151.09 285.88 151.09 285.88C151.09 283.99 148.79 282.45 145.96 282.44C143.13 282.44 140.83 283.98 140.83 285.88Z" id="a2136qUAXP"></path></defs><g><g><g><use xlink:href="#e1rbGpxrPV" opacity="1" fill="#3f3d56" fill-opacity="1"></use><g><use xlink:href="#e1rbGpxrPV" opacity="1" fill-opacity="0" stroke="#000000" stroke-width="1" stroke-opacity="0"></use></g></g><g><use xlink:href="#b1gKCwRozg" opacity="1" fill="#3f3d56" fill-opacity="1"></use><g><use xlink:href="#b1gKCwRozg" opacity="1" fill-opacity="0" stroke="#000000" stroke-width="1" stroke-opacity="0"></use></g></g><g><use xlink:href="#b5EImMPjt7" opacity="1" fill="#3f3d56" fill-opacity="1"></use><g><use xlink:href="#b5EImMPjt7" opacity="1" fill-opacity="0" stroke="#000000" stroke-width="1" stroke-opacity="0"></use></g></g><g><use xlink:href="#f3TbybBksh" opacity="1" fill="#ffb8b8" fill-opacity="1"></use><g><use xlink:href="#f3TbybBksh" opacity="1" fill-opacity="0" stroke="#000000" stroke-width="1" stroke-opacity="0"></use></g></g><g><use xlink:href="#gUufivNr5" opacity="1" fill="#ffb8b8" fill-opacity="1"></use><g><use xlink:href="#gUufivNr5" opacity="1" fill-opacity="0" stroke="#000000" stroke-width="1" stroke-opacity="0"></use></g></g><g><use xlink:href="#c5YykdFYi" opacity="1" fill="#a0616a" fill-opacity="1"></use><g><use xlink:href="#c5YykdFYi" opacity="1" fill-opacity="0" stroke="#000000" stroke-width="1" stroke-opacity="0"></use></g></g><g><use xlink:href="#c69TOiPqCm" opacity="1" fill="#2f2e41" fill-opacity="1"></use><g><use xlink:href="#c69TOiPqCm" opacity="1" fill-opacity="0" stroke="#000000" stroke-width="1" stroke-opacity="0"></use></g></g><g><use xlink:href="#afJGlRsly" opacity="1" fill="#2f2e41" fill-opacity="1"></use><g><use xlink:href="#afJGlRsly" opacity="1" fill-opacity="0" stroke="#000000" stroke-width="1" stroke-opacity="0"></use></g></g><g><use xlink:href="#atZM1F3fT" opacity="1" fill="#2f2e41" fill-opacity="1"></use><g><use xlink:href="#atZM1F3fT" opacity="1" fill-opacity="0" stroke="#000000" stroke-width="1" stroke-opacity="0"></use></g></g><g><use xlink:href="#a1d6pLkK2z" opacity="1" fill="#ffb8b8" fill-opacity="1"></use><g><use xlink:href="#a1d6pLkK2z" opacity="1" fill-opacity="0" stroke="#000000" stroke-width="1" stroke-opacity="0"></use></g></g><g><use xlink:href="#avCIrtoJM" opacity="1" fill="#ffb8b8" fill-opacity="1"></use><g><use xlink:href="#avCIrtoJM" opacity="1" fill-opacity="0" stroke="#000000" stroke-width="1" stroke-opacity="0"></use></g></g><g><use xlink:href="#j2V0ze2Cfu" opacity="1" fill="#ffb8b8" fill-opacity="1"></use><g><use xlink:href="#j2V0ze2Cfu" opacity="1" fill-opacity="0" stroke="#000000" stroke-width="1" stroke-opacity="0"></use></g></g><g><use xlink:href="#d11wwoFSpp" opacity="1" fill="#ffb8b8" fill-opacity="1"></use><g><use xlink:href="#d11wwoFSpp" opacity="1" fill-opacity="0" stroke="#000000" stroke-width="1" stroke-opacity="0"></use></g></g><g><use xlink:href="#d30rI6MFZ" opacity="1" fill="#128e79" fill-opacity="1"></use><g><use xlink:href="#d30rI6MFZ" opacity="1" fill-opacity="0" stroke="#000000" stroke-width="1" stroke-opacity="0"></use></g></g><g><use xlink:href="#a1vE4yZdW4" opacity="1" fill="#000000" fill-opacity="1"></use><g><use xlink:href="#a1vE4yZdW4" opacity="1" fill-opacity="0" stroke="#000000" stroke-width="1" stroke-opacity="0"></use></g></g><g><use xlink:href="#c1prmfWvk" opacity="1" fill="#ffb8b8" fill-opacity="1"></use><g><use xlink:href="#c1prmfWvk" opacity="1" fill-opacity="0" stroke="#000000" stroke-width="1" stroke-opacity="0"></use></g></g><g><use xlink:href="#aAs624a7k" opacity="1" fill="#b1060f" fill-opacity="1"></use><g><use xlink:href="#aAs624a7k" opacity="1" fill-opacity="0" stroke="#000000" stroke-width="1" stroke-opacity="0"></use></g></g><g><use xlink:href="#a27FyRCyON" opacity="1" fill="#2f2e41" fill-opacity="1"></use><g><use xlink:href="#a27FyRCyON" opacity="1" fill-opacity="0" stroke="#000000" stroke-width="1" stroke-opacity="0"></use></g></g><g><use xlink:href="#b2GHjqFL5Z" opacity="1" fill="#b1060f" fill-opacity="1"></use><g><use xlink:href="#b2GHjqFL5Z" opacity="1" fill-opacity="0" stroke="#000000" stroke-width="1" stroke-opacity="0"></use></g></g><g><use xlink:href="#c4LTlHDWG3" opacity="1" fill="#e50914" fill-opacity="1"></use><g><use xlink:href="#c4LTlHDWG3" opacity="1" fill-opacity="0" stroke="#000000" stroke-width="1" stroke-opacity="0"></use></g></g><g><use xlink:href="#b5O7VjIPee" opacity="1" fill="#ffb8b8" fill-opacity="1"></use><g><use xlink:href="#b5O7VjIPee" opacity="1" fill-opacity="0" stroke="#000000" stroke-width="1" stroke-opacity="0"></use></g></g><g><use xlink:href="#b4xKo4oahl" opacity="1" fill="#ffb8b8" fill-opacity="1"></use><g><use xlink:href="#b4xKo4oahl" opacity="1" fill-opacity="0" stroke="#000000" stroke-width="1" stroke-opacity="0"></use></g></g><g><use xlink:href="#b1zNPnCSw7" opacity="1" fill="#a0616a" fill-opacity="1"></use><g><use xlink:href="#b1zNPnCSw7" opacity="1" fill-opacity="0" stroke="#000000" stroke-width="1" stroke-opacity="0"></use></g></g><g><use xlink:href="#bph3HpaWe" opacity="1" fill="#2f2e41" fill-opacity="1"></use><g><use xlink:href="#bph3HpaWe" opacity="1" fill-opacity="0" stroke="#000000" stroke-width="1" stroke-opacity="0"></use></g></g><g><use xlink:href="#a5OC2Sld7" opacity="1" fill="#526fdc" fill-opacity="1"></use><g><use xlink:href="#a5OC2Sld7" opacity="1" fill-opacity="0" stroke="#000000" stroke-width="1" stroke-opacity="0"></use></g></g><g><use xlink:href="#a1k4NpUHKT" opacity="1" fill="#2f2e41" fill-opacity="1"></use><g><use xlink:href="#a1k4NpUHKT" opacity="1" fill-opacity="0" stroke="#000000" stroke-width="1" stroke-opacity="0"></use></g></g><g><use xlink:href="#e1MQ2IgREw" opacity="1" fill="#ffb8b8" fill-opacity="1"></use><g><use xlink:href="#e1MQ2IgREw" opacity="1" fill-opacity="0" stroke="#000000" stroke-width="1" stroke-opacity="0"></use></g></g><g><use xlink:href="#bzjdz1vEa" opacity="1" fill="#ffb8b8" fill-opacity="1"></use><g><use xlink:href="#bzjdz1vEa" opacity="1" fill-opacity="0" stroke="#000000" stroke-width="1" stroke-opacity="0"></use></g></g><g><use xlink:href="#fYO6O7C" opacity="1" fill="#ffb8b8" fill-opacity="1"></use><g><use xlink:href="#fYO6O7C" opacity="1" fill-opacity="0" stroke="#000000" stroke-width="1" stroke-opacity="0"></use></g></g><g><use xlink:href="#b3WuELLaOh" opacity="1" fill="#ffb8b8" fill-opacity="1"></use><g><use xlink:href="#b3WuELLaOh" opacity="1" fill-opacity="0" stroke="#000000" stroke-width="1" stroke-opacity="0"></use></g></g><g><use xlink:href="#c1ETYW7Xsq" opacity="1" fill="#32b3ba" fill-opacity="1"></use><g><use xlink:href="#c1ETYW7Xsq" opacity="1" fill-opacity="0" stroke="#000000" stroke-width="1" stroke-opacity="0"></use></g></g><g><use xlink:href="#e4PZd6hBF0" opacity="1" fill="#000000" fill-opacity="1"></use><g><use xlink:href="#e4PZd6hBF0" opacity="1" fill-opacity="0" stroke="#000000" stroke-width="1" stroke-opacity="0"></use></g></g><g><use xlink:href="#b4Co5rizGa" opacity="1" fill="#ffb8b8" fill-opacity="1"></use><g><use xlink:href="#b4Co5rizGa" opacity="1" fill-opacity="0" stroke="#000000" stroke-width="1" stroke-opacity="0"></use></g></g><g><use xlink:href="#b1ETrd90et" opacity="1" fill="#2f2e41" fill-opacity="1"></use><g><use xlink:href="#b1ETrd90et" opacity="1" fill-opacity="0" stroke="#000000" stroke-width="1" stroke-opacity="0"></use></g></g><g><use xlink:href="#agiNSRI5q" opacity="1" fill="#b1060f" fill-opacity="1"></use><g><use xlink:href="#agiNSRI5q" opacity="1" fill-opacity="0" stroke="#000000" stroke-width="1" stroke-opacity="0"></use></g></g><g><use xlink:href="#b2Bi9qLaOi" opacity="1" fill="#b1060f" fill-opacity="1"></use><g><use xlink:href="#b2Bi9qLaOi" opacity="1" fill-opacity="0" stroke="#000000" stroke-width="1" stroke-opacity="0"></use></g></g><g><use xlink:href="#b7eNh7sb9L" opacity="1" fill="#e50914" fill-opacity="1"></use><g><use xlink:href="#b7eNh7sb9L" opacity="1" fill-opacity="0" stroke="#000000" stroke-width="1" stroke-opacity="0"></use></g></g><g><use xlink:href="#a2136qUAXP" opacity="1" fill="#3f3d56" fill-opacity="1"></use><g><use xlink:href="#a2136qUAXP" opacity="1" fill-opacity="0" stroke="#000000" stroke-width="1" stroke-opacity="0"></use></g></g></g></g></svg>